<?xml version="1.0" encoding="UTF-8" standalone="no"?>
<!DOCTYPE svg PUBLIC "-//W3C//DTD SVG 1.1//EN" "http://www.w3.org/Graphics/SVG/1.1/DTD/svg11.dtd" >
<svg xmlns="http://www.w3.org/2000/svg">
<metadata>
This is a SVG font generated by e-font.
</metadata>
<defs>
<font id="lineto-brown-light" horiz-adv-x="516" >
<font-face units-per-em="1000" ascent="960" descent="-250" />
<missing-glyph horiz-adv-x="516" />
<glyph unicode="&#x20;" horiz-adv-x="270" />
<glyph unicode="&#x21;" horiz-adv-x="240" d="M92 456L92 700L149 700L149 456L139 210L102 210L92 456ZM68 42C68 57 73 69 83 79C93 89 105 94 120 94C135 94 147 89 157 79C167 69 172 57 172 42C172 27 167 15 157 5C147 -5 135 -10 120 -10C105 -10 93 -5 83 5C73 15 68 27 68 42Z"/>
<glyph unicode="&#x22;" horiz-adv-x="410" d="M80 700L137 700L127 446L90 446L80 700ZM273 700L330 700L320 446L283 446L273 700Z"/>
<glyph unicode="&#x23;" horiz-adv-x="630" d="M491 480L590 480L590 426L477 426L437 274L536 274L536 220L422 220L363 0L306 0L366 220L196 220L136 0L79 0L139 220L40 220L40 274L153 274L193 426L94 426L94 480L208 480L267 700L324 700L265 480L435 480L494 700L551 700L491 480ZM210 274L380 274L420 426L250 426L210 274Z"/>
<glyph unicode="&#x24;" horiz-adv-x="516" d="M79 147C89 134 100 121 113 109C125 97 139 86 154 77C169 68 186 60 205 55C223 50 244 47 267 47C284 47 302 50 319 56C336 62 352 71 366 82C379 93 390 107 399 124C407 140 411 158 411 178C411 210 403 236 386 255C369 274 349 291 324 304C299 317 271 330 242 341C212 352 184 366 159 382C133 398 111 417 92 440C73 462 64 491 64 526C64 551 68 573 77 594C85 615 96 633 111 649C126 665 143 678 164 688C184 698 206 705 230 708L230 815L287 815L287 709C306 707 323 704 339 699C355 694 369 688 382 681C395 674 406 667 416 660C426 653 435 646 442 640L404 596C383 614 362 628 341 638C320 648 294 653 265 653C246 653 227 650 210 645C193 639 178 631 165 620C152 609 142 595 135 580C128 565 124 548 124 529C124 502 132 481 148 465C163 448 183 434 207 422C231 409 257 398 285 387C313 376 340 362 365 347C380 338 393 328 406 317C419 306 430 293 440 280C449 266 457 251 463 234C468 217 471 198 471 178C471 152 466 128 457 106C448 84 435 65 418 49C401 32 382 19 360 9C337 -1 313 -7 287 -9L287 -115L230 -115L230 -8C151 1 86 40 35 108L79 147Z"/>
<glyph unicode="&#x25;" horiz-adv-x="890" d="M355 531C355 549 352 566 346 582C340 597 332 611 321 623C310 634 297 643 282 650C267 657 250 660 233 660C216 660 200 657 186 650C171 643 159 634 148 623C137 611 128 597 122 582C116 566 113 549 113 531C113 513 116 496 122 481C128 465 137 451 148 440C159 428 171 419 186 412C200 405 216 402 233 402C250 402 267 405 282 412C297 419 310 428 321 440C332 451 340 465 346 481C352 496 355 513 355 531ZM60 531C60 556 64 579 73 601C82 622 94 641 110 658C125 674 144 687 165 696C186 705 209 710 234 710C259 710 282 705 303 696C324 687 343 674 359 658C374 641 386 622 395 601C404 579 408 556 408 531C408 506 404 483 395 462C386 440 374 421 359 405C343 388 324 375 303 366C282 357 259 352 234 352C209 352 186 357 165 366C144 375 125 388 110 405C94 421 82 440 73 462C64 483 60 506 60 531ZM777 169C777 187 774 204 768 220C762 235 754 249 743 261C732 272 719 281 704 288C689 295 672 298 655 298C638 298 622 295 608 288C593 281 581 272 570 261C559 249 550 235 544 220C538 204 535 187 535 169C535 151 538 134 544 119C550 103 559 89 570 78C581 66 593 57 608 50C622 43 638 40 655 40C672 40 689 43 704 50C719 57 732 66 743 78C754 89 762 103 768 119C774 134 777 151 777 169ZM482 169C482 194 486 217 495 239C504 260 516 279 532 296C547 312 566 325 587 334C608 343 631 348 656 348C681 348 704 343 725 334C746 325 765 312 781 296C796 279 808 260 817 239C826 217 830 194 830 169C830 144 826 121 817 100C808 78 796 59 781 43C765 26 746 13 725 4C704 -5 681 -10 656 -10C631 -10 608 -5 587 4C566 13 547 26 532 43C516 59 504 78 495 100C486 121 482 144 482 169ZM215 0L623 700L675 700L267 0L215 0Z"/>
<glyph unicode="&#x26;" horiz-adv-x="636" d="M666 0L587 0L494 89C469 59 438 35 401 17C364 -1 320 -10 270 -10C236 -10 204 -5 174 6C143 17 117 31 94 50C71 69 53 91 40 117C27 142 20 170 20 201C20 226 24 248 32 269C39 290 49 309 62 326C74 343 88 358 105 372C122 386 139 399 157 410C132 434 112 459 97 486C82 512 74 539 74 568C74 587 77 605 84 622C91 639 100 655 113 668C126 681 141 691 159 699C177 706 197 710 220 710C243 710 263 706 281 699C299 691 314 681 327 668C340 655 349 639 356 622C363 605 366 587 366 568C366 549 363 531 356 515C349 499 340 484 329 471C318 457 305 444 291 433C276 422 261 411 246 402L483 175C500 213 509 252 509 293C509 318 507 342 504 363C500 384 497 400 494 411L550 424C554 408 558 388 561 365C564 342 566 318 566 293C566 265 563 238 556 211C549 184 538 158 525 134L666 0ZM77 201C77 180 82 160 92 141C101 122 115 106 132 91C149 76 169 65 193 57C216 48 242 44 270 44C313 44 349 52 379 67C409 82 434 102 453 127L199 371C160 346 130 321 109 294C88 267 77 236 77 201ZM309 568C309 594 301 615 284 632C267 648 245 656 220 656C195 656 174 648 157 632C140 615 131 594 131 568C131 546 138 525 151 505C164 484 179 466 195 451L206 440C219 449 231 458 244 467C256 476 267 485 277 496C286 507 294 518 300 530C306 541 309 554 309 568Z"/>
<glyph unicode="&#x27;" horiz-adv-x="217" d="M80 700L137 700L127 446L90 446L80 700Z"/>
<glyph unicode="&#x28;" horiz-adv-x="425" d="M217 250C217 169 229 93 253 22C277 -50 311 -116 355 -177L309 -210C262 -145 225 -74 199 4C173 81 160 163 160 250C160 337 173 419 199 497C225 574 262 645 309 710L355 677C311 616 277 550 253 479C229 407 217 331 217 250Z"/>
<glyph unicode="&#x29;" horiz-adv-x="425" d="M208 250C208 331 196 407 172 479C148 550 114 616 70 677L116 710C163 645 200 574 226 497C252 419 265 337 265 250C265 163 252 81 226 4C200 -74 163 -145 116 -210L70 -177C114 -116 148 -50 172 22C196 93 208 169 208 250Z"/>
<glyph unicode="&#x2a;" horiz-adv-x="494" d="M285 479L388 337L348 308L246 449L143 308L103 337L205 477L40 532L55 579L221 525L221 700L271 700L271 525L437 579L453 532L285 479Z"/>
<glyph unicode="&#x2b;" horiz-adv-x="530" d="M292 229L292 46L238 46L238 229L55 229L55 283L238 283L238 466L292 466L292 283L475 283L475 229L292 229Z"/>
<glyph unicode="&#x2c;" horiz-adv-x="304" d="M127 100L202 100L106 -140L56 -140L127 100Z"/>
<glyph unicode="&#x2d;" horiz-adv-x="420" d="M340 274L340 225L80 225L80 274L340 274Z"/>
<glyph unicode="&#x2e;" horiz-adv-x="304" d="M110 42C110 57 115 69 125 79C135 89 147 94 162 94C177 94 189 89 199 79C209 69 214 57 214 42C214 27 209 15 199 5C189 -5 177 -10 162 -10C147 -10 135 -5 125 5C115 15 110 27 110 42Z"/>
<glyph unicode="&#x2f;" horiz-adv-x="395" d="M5 0L332 700L390 700L63 0L5 0Z"/>
<glyph unicode="&#x30;" horiz-adv-x="590" d="M120 350C120 307 123 267 129 230C135 193 145 161 159 134C172 107 190 85 213 70C235 55 262 47 295 47C328 47 355 55 378 70C400 85 418 107 432 134C445 161 455 193 461 230C467 267 470 307 470 350C470 393 467 434 461 471C455 508 445 540 432 567C418 594 400 615 378 630C355 645 328 653 295 653C262 653 235 645 213 630C190 615 172 594 159 567C145 540 135 508 129 471C123 434 120 393 120 350ZM60 350C60 402 64 450 73 494C81 538 94 576 113 608C132 640 156 665 186 683C215 701 252 710 295 710C338 710 374 701 404 683C434 665 458 640 477 608C496 576 509 538 518 494C526 450 530 402 530 350C530 298 526 250 518 206C509 162 496 124 477 92C458 60 434 35 404 17C374 -1 338 -10 295 -10C252 -10 215 -1 186 17C156 35 132 60 113 92C94 124 81 162 73 206C64 250 60 298 60 350Z"/>
<glyph unicode="&#x31;" horiz-adv-x="375" d="M55 606L210 700L250 700L250 0L190 0L190 621L55 546L55 606Z"/>
<glyph unicode="&#x32;" horiz-adv-x="520" d="M45 550C50 572 58 593 70 613C81 632 95 649 112 664C129 678 148 689 170 698C191 706 215 710 240 710C269 710 296 705 321 695C345 685 366 671 384 654C401 637 415 616 425 592C435 567 440 541 440 513C440 482 434 452 421 424C408 396 387 364 358 329L133 57L450 57L450 0L40 0L40 37L308 359C337 393 356 422 366 445C375 468 380 490 380 511C380 532 377 551 370 568C363 585 353 600 341 613C329 626 315 636 298 643C281 650 262 653 242 653C204 653 173 642 149 620C124 597 108 568 99 531L45 550Z"/>
<glyph unicode="&#x33;" horiz-adv-x="548" d="M88 131C104 106 126 85 154 70C181 55 213 47 250 47C276 47 300 52 321 62C342 71 361 84 376 101C391 117 402 136 411 157C419 178 423 201 423 225C423 250 418 274 409 296C400 317 387 336 370 352C353 368 334 381 311 390C288 399 264 403 237 403C218 403 202 402 191 399C179 396 171 394 166 393L166 430L351 643L73 643L73 700L443 700L443 663L265 457C296 455 325 448 352 435C379 422 402 405 421 384C440 363 456 339 467 312C478 285 483 256 483 225C483 194 477 164 466 135C455 106 439 81 418 60C397 39 373 22 345 9C316 -4 285 -10 250 -10C204 -10 163 0 127 19C90 38 61 65 40 100L88 131Z"/>
<glyph unicode="&#x34;" horiz-adv-x="570" d="M370 180L15 180L15 217L390 700L430 700L430 237L545 237L545 180L430 180L430 0L370 0L370 180ZM370 237L370 580L104 237L370 237Z"/>
<glyph unicode="&#x35;" horiz-adv-x="545" d="M456 700L456 643L176 643L147 437C162 444 177 450 194 454C210 458 227 460 245 460C278 460 309 454 338 442C367 429 392 412 413 391C434 370 450 345 462 317C474 288 480 258 480 225C480 193 474 163 462 134C450 105 434 80 413 59C392 38 368 21 339 9C310 -4 280 -10 247 -10C206 -10 168 -1 134 18C99 37 71 62 50 93L97 125C113 102 134 83 160 69C185 54 214 47 246 47C271 47 295 52 316 62C337 71 356 84 371 100C386 116 398 135 407 157C416 178 420 201 420 225C420 250 416 273 407 295C398 316 385 335 369 351C353 367 334 380 313 389C291 398 267 403 242 403C218 403 195 399 174 390C153 381 134 369 118 354L78 360L126 700L456 700Z"/>
<glyph unicode="&#x36;" horiz-adv-x="575" d="M219 441C241 448 265 452 291 452C324 452 355 446 383 434C411 422 435 406 456 385C476 364 492 339 503 311C514 283 520 253 520 221C520 188 514 158 503 130C491 101 475 77 454 56C433 35 408 19 380 8C351 -4 320 -10 287 -10C254 -10 223 -4 195 9C166 21 142 37 121 58C100 78 84 102 73 129C61 156 55 186 55 217C55 249 60 278 71 303C81 328 92 349 104 368L319 700L387 700L219 441ZM287 395C262 395 238 391 217 382C195 373 175 360 158 345C149 330 139 312 130 292C120 272 115 248 115 221C115 197 119 174 128 153C137 132 149 113 164 98C179 82 198 70 219 61C240 52 264 47 289 47C313 47 336 52 357 61C378 70 396 82 411 98C426 113 438 132 447 153C456 174 460 196 460 221C460 246 456 269 447 290C438 311 426 330 411 345C396 360 378 373 357 382C336 391 312 395 287 395Z"/>
<glyph unicode="&#x37;" horiz-adv-x="520" d="M50 700L480 700L480 663L163 0L100 0L408 643L50 643L50 700Z"/>
<glyph unicode="&#x38;" horiz-adv-x="570" d="M285 -10C252 -10 221 -5 193 6C165 17 141 32 121 51C100 70 84 92 73 118C61 144 55 172 55 203C55 244 66 282 88 316C109 349 139 375 176 393C153 408 134 428 121 453C107 477 100 504 100 534C100 558 105 581 114 602C123 623 136 642 153 658C169 674 188 687 211 696C234 705 258 710 285 710C312 710 336 705 359 696C382 687 401 674 418 658C434 642 447 623 456 602C465 581 470 558 470 534C470 504 463 477 450 453C436 428 417 408 394 393C431 375 461 349 483 316C504 282 515 244 515 203C515 172 509 144 498 118C486 92 470 70 450 51C429 32 405 17 377 6C348 -5 318 -10 285 -10ZM285 653C267 653 250 650 235 644C220 637 207 629 196 618C185 607 176 595 170 581C163 566 160 551 160 534C160 518 163 503 169 489C175 474 184 462 195 452C206 441 219 433 234 427C249 420 266 417 285 416C304 417 321 420 336 427C351 433 365 441 376 452C387 462 395 474 401 489C407 503 410 518 410 534C410 551 407 566 401 581C394 595 386 607 375 618C364 629 350 637 335 644C320 650 303 653 285 653ZM285 47C310 47 333 51 354 60C375 68 393 79 408 93C423 107 434 124 443 143C451 162 455 182 455 203C455 224 451 245 443 264C434 283 423 299 408 313C393 327 375 338 354 347C333 355 310 359 285 359C260 359 237 355 216 347C195 338 178 327 163 313C148 299 136 283 128 264C119 245 115 224 115 203C115 182 119 162 128 143C136 124 148 107 163 93C178 79 195 68 216 60C237 51 260 47 285 47Z"/>
<glyph unicode="&#x39;" horiz-adv-x="575" d="M356 259C334 252 310 248 284 248C251 248 220 254 192 266C164 278 140 295 120 316C99 337 83 361 72 389C61 417 55 447 55 479C55 512 61 542 73 571C84 599 101 623 122 644C143 665 167 681 196 693C224 704 255 710 288 710C321 710 352 704 381 692C409 679 433 663 454 643C475 622 491 598 503 571C514 543 520 514 520 483C520 451 515 423 505 398C494 373 483 351 471 332L256 0L188 0L356 259ZM288 305C313 305 337 310 359 319C380 328 400 340 417 355C426 370 436 388 446 408C455 428 460 452 460 479C460 503 456 526 447 547C438 568 426 587 411 603C396 618 377 631 356 640C335 649 311 653 286 653C262 653 240 649 219 640C198 631 179 618 164 603C149 587 137 569 128 548C119 527 115 504 115 479C115 454 119 431 128 410C137 389 149 370 164 355C179 340 198 328 219 319C240 310 263 305 288 305Z"/>
<glyph unicode="&#x3a;" horiz-adv-x="304" d="M110 42C110 57 115 69 125 79C135 89 147 94 162 94C177 94 189 89 199 79C209 69 214 57 214 42C214 27 209 15 199 5C189 -5 177 -10 162 -10C147 -10 135 -5 125 5C115 15 110 27 110 42ZM110 414C110 429 115 441 125 451C135 461 147 466 162 466C177 466 189 461 199 451C209 441 214 429 214 414C214 399 209 387 199 377C189 367 177 362 162 362C147 362 135 367 125 377C115 387 110 399 110 414Z"/>
<glyph unicode="&#x3b;" horiz-adv-x="304" d="M127 100L202 100L106 -140L56 -140L127 100ZM110 414C110 429 115 441 125 451C135 461 147 466 162 466C177 466 189 461 199 451C209 441 214 429 214 414C214 399 209 387 199 377C189 367 177 362 162 362C147 362 135 367 125 377C115 387 110 399 110 414Z"/>
<glyph unicode="&#x3c;" horiz-adv-x="530" d="M475 65L55 239L55 273L475 447L475 389L152 256L475 123L475 65Z"/>
<glyph unicode="&#x3d;" horiz-adv-x="530" d="M55 317L55 371L475 371L475 317L55 317ZM55 141L55 195L475 195L475 141L55 141Z"/>
<glyph unicode="&#x3e;" horiz-adv-x="530" d="M55 123L378 256L55 389L55 447L475 273L475 239L55 65L55 123Z"/>
<glyph unicode="&#x3f;" horiz-adv-x="500" d="M70 575C75 594 83 612 95 629C107 646 122 660 139 672C156 684 175 693 197 700C218 707 241 710 265 710C294 710 320 705 345 696C369 687 390 674 408 658C426 641 440 622 450 600C460 578 465 555 465 530C465 509 462 491 457 475C451 458 443 443 434 430C425 416 414 404 403 393C391 382 379 373 367 364C354 355 342 346 330 339C317 331 306 324 296 317C286 310 278 303 272 296C266 289 263 281 263 273C263 264 267 255 274 246C281 236 289 227 297 220L255 180C238 197 225 213 218 227C210 240 206 256 206 273C206 290 210 304 219 317C227 329 237 340 250 350C263 360 277 370 293 379C308 388 323 398 337 409C356 423 372 440 387 459C401 478 408 502 408 530C408 547 405 564 398 579C391 594 381 608 368 619C355 630 340 639 323 646C305 653 286 656 265 656C229 656 198 647 173 629C147 610 131 587 124 559L70 575ZM208 42C208 57 213 69 223 79C233 89 245 94 260 94C275 94 287 89 297 79C307 69 312 57 312 42C312 27 307 15 297 5C287 -5 275 -10 260 -10C245 -10 233 -5 223 5C213 15 208 27 208 42Z"/>
<glyph unicode="&#x40;" horiz-adv-x="1000" d="M624 328C613 349 597 369 575 386C552 403 524 411 491 411C470 411 450 407 431 399C412 391 395 380 381 366C366 351 355 334 347 315C338 295 334 273 334 250C334 227 338 206 346 187C354 167 365 150 380 136C394 121 411 110 430 102C449 93 469 89 491 89C525 89 553 98 575 115C597 132 613 151 624 172L624 328ZM636 104C622 85 603 68 579 55C554 42 525 35 491 35C464 35 439 39 416 48C392 57 371 68 354 82C329 101 310 126 297 155C284 184 277 216 277 250C277 284 284 316 297 345C310 374 329 399 354 418C371 432 392 443 416 452C439 461 464 465 491 465C514 465 538 460 563 451C587 441 607 426 624 407L624 455L681 455L681 181C681 156 687 134 698 116C709 98 729 89 759 89C778 89 795 94 810 103C824 112 836 125 845 142C854 159 861 178 866 201C871 223 873 247 873 273C873 330 863 380 844 425C824 470 797 508 764 539C730 570 690 594 645 611C600 628 551 636 500 636C449 636 400 626 355 606C310 585 270 558 237 523C203 488 176 447 157 400C137 353 127 303 127 250C127 196 137 146 157 99C177 52 204 11 239 -24C274 -59 314 -86 361 -106C407 -126 456 -136 508 -136C550 -136 590 -129 627 -115C664 -101 698 -82 729 -59L760 -106C725 -133 687 -153 644 -168C601 -183 555 -190 507 -190C446 -190 390 -179 337 -156C284 -133 237 -101 198 -61C158 -21 127 26 104 79C81 132 70 189 70 250C70 311 81 368 104 421C127 474 158 521 198 561C237 601 284 633 337 656C390 679 446 690 507 690C566 690 621 680 672 660C723 640 768 612 807 576C845 539 875 495 897 444C919 393 930 336 930 273C930 241 926 211 919 182C912 153 901 127 886 106C871 84 853 67 832 54C811 41 786 35 758 35C733 35 710 40 687 51C664 62 647 79 636 104Z"/>
<glyph unicode="&#x41;" horiz-adv-x="654" d="M347 700L649 0L589 0L497 211L157 211L65 0L5 0L307 700L347 700ZM181 268L472 268L327 606L181 268Z"/>
<glyph unicode="&#x42;" horiz-adv-x="605" d="M510 529C510 502 504 478 493 455C482 432 466 412 447 397C483 380 513 355 536 321C559 287 570 249 570 207C570 176 564 147 552 121C539 95 522 72 501 53C482 36 460 23 435 14C410 5 379 0 342 0L90 0L90 700L319 700C352 700 379 696 401 688C422 679 441 668 456 653C473 638 486 619 496 598C505 577 510 554 510 529ZM150 358L150 57L339 57C370 57 395 61 415 68C434 75 451 86 464 99C478 112 489 128 498 147C506 166 510 186 510 207C510 228 506 248 498 267C489 286 478 302 464 315C451 328 434 339 415 347C395 354 370 358 339 358L150 358ZM316 415C343 415 364 418 380 425C396 432 409 441 420 452C440 473 450 499 450 529C450 559 440 585 420 606C409 617 396 626 380 633C364 640 343 643 316 643L150 643L150 415L316 415Z"/>
<glyph unicode="&#x43;" horiz-adv-x="685" d="M665 119C650 100 632 82 613 67C593 51 571 37 548 26C525 15 500 6 474 -1C448 -7 422 -10 395 -10C343 -10 295 -1 251 17C207 35 169 60 137 92C105 124 80 162 62 206C44 250 35 298 35 350C35 401 44 448 62 492C79 535 104 573 135 606C166 638 203 663 246 682C289 701 335 710 386 710C436 710 483 701 528 682C572 663 609 637 640 603L599 562C574 589 544 611 507 628C470 645 430 653 386 653C344 653 305 645 270 630C234 614 203 592 178 565C152 537 132 505 117 468C102 431 95 392 95 350C95 307 102 268 117 231C132 194 152 162 179 135C205 108 236 86 273 71C309 55 349 47 392 47C440 47 484 57 525 78C565 99 597 125 622 157L665 119Z"/>
<glyph unicode="&#x44;" horiz-adv-x="705" d="M610 350C610 397 600 441 581 482C562 523 535 557 500 584C475 603 445 618 412 628C378 638 336 643 287 643L150 643L150 57L287 57C336 57 378 62 412 72C445 82 475 97 500 116C535 143 562 177 581 218C600 259 610 303 610 350ZM670 350C670 291 658 237 633 188C608 139 574 98 531 66C502 45 469 28 431 17C393 6 346 0 290 0L90 0L90 700L290 700C346 700 393 694 431 683C469 672 502 655 531 634C574 602 608 561 633 512C658 463 670 409 670 350Z"/>
<glyph unicode="&#x45;" horiz-adv-x="520" d="M150 643L150 415L400 415L400 358L150 358L150 57L480 57L480 0L90 0L90 700L470 700L470 643L150 643Z"/>
<glyph unicode="&#x46;" horiz-adv-x="490" d="M150 643L150 415L400 415L400 358L150 358L150 0L90 0L90 700L470 700L470 643L150 643Z"/>
<glyph unicode="&#x47;" horiz-adv-x="730" d="M605 358L375 358L375 415L665 415L665 120C650 101 632 83 613 67C593 51 571 37 548 26C525 15 500 6 474 -1C448 -7 422 -10 395 -10C343 -10 295 -1 251 17C207 35 169 60 137 92C105 124 80 162 62 206C44 250 35 298 35 350C35 401 44 448 62 492C79 535 104 573 135 606C166 638 203 663 246 682C289 701 335 710 386 710C436 710 483 701 528 682C572 663 609 637 640 603L599 562C574 589 544 611 507 628C470 645 430 653 386 653C344 653 305 645 270 630C234 614 203 592 178 565C152 537 132 505 117 468C102 431 95 392 95 350C95 307 102 268 117 231C132 194 152 162 179 135C205 108 236 86 273 71C309 55 349 47 392 47C435 47 475 55 512 71C549 87 580 108 605 135L605 358Z"/>
<glyph unicode="&#x48;" horiz-adv-x="750" d="M600 358L150 358L150 0L90 0L90 700L150 700L150 415L600 415L600 700L660 700L660 0L600 0L600 358Z"/>
<glyph unicode="&#x49;" horiz-adv-x="240" d="M90 700L150 700L150 0L90 0L90 700Z"/>
<glyph unicode="&#x4a;" horiz-adv-x="435" d="M54 124C63 101 79 83 100 69C121 54 144 47 170 47C193 47 214 52 233 63C252 74 267 88 278 107C283 116 288 128 291 141C294 154 295 171 295 192L295 700L355 700L355 195C355 166 352 141 347 122C342 103 334 86 324 71C307 46 286 26 259 12C232 -3 202 -10 170 -10C132 -10 98 0 67 21C36 42 14 69 0 102L54 124Z"/>
<glyph unicode="&#x4b;" horiz-adv-x="610" d="M510 0L150 354L150 0L90 0L90 700L150 700L150 386L480 700L560 700L214 369L590 0L510 0Z"/>
<glyph unicode="&#x4c;" horiz-adv-x="500" d="M150 57L480 57L480 0L90 0L90 700L150 700L150 57Z"/>
<glyph unicode="&#x4d;" horiz-adv-x="834" d="M437 140L397 140L150 554L150 0L90 0L90 700L130 700L417 219L704 700L744 700L744 0L684 0L684 554L437 140Z"/>
<glyph unicode="&#x4e;" horiz-adv-x="750" d="M90 700L130 700L600 117L600 700L660 700L660 0L620 0L150 583L150 0L90 0L90 700Z"/>
<glyph unicode="&#x4f;" horiz-adv-x="766" d="M35 350C35 401 44 448 62 492C79 536 104 574 135 607C166 639 202 664 245 683C288 701 334 710 383 710C432 710 478 701 521 683C564 664 601 639 632 607C663 574 687 536 705 492C722 448 731 401 731 350C731 299 722 251 705 208C687 164 663 126 632 94C601 61 564 36 521 18C478 -1 432 -10 383 -10C334 -10 288 -1 245 18C202 36 166 61 135 94C104 126 79 164 62 208C44 251 35 299 35 350ZM95 350C95 309 102 270 116 233C130 196 150 163 176 136C201 109 232 87 267 71C302 55 341 47 383 47C425 47 464 55 499 71C534 87 565 109 591 136C616 163 636 196 650 233C664 270 671 309 671 350C671 391 664 430 650 467C636 504 616 536 591 564C565 591 534 613 499 629C464 645 425 653 383 653C341 653 302 645 267 629C232 613 201 591 176 564C150 536 130 504 116 467C102 430 95 391 95 350Z"/>
<glyph unicode="&#x50;" horiz-adv-x="580" d="M150 338L150 0L90 0L90 700L349 700C381 700 408 696 430 689C452 682 471 671 486 658C505 641 521 621 533 597C544 573 550 547 550 519C550 491 544 465 533 441C521 417 505 397 486 380C471 367 452 356 430 349C408 342 381 338 349 338L150 338ZM346 395C373 395 395 398 412 405C429 412 443 421 454 432C465 443 474 456 481 471C487 486 490 502 490 519C490 536 487 552 481 567C474 582 465 595 454 606C443 617 429 626 412 633C395 640 373 643 346 643L150 643L150 395L346 395Z"/>
<glyph unicode="&#x51;" horiz-adv-x="771" d="M35 350C35 401 44 448 62 492C79 536 104 574 135 607C166 639 202 664 245 683C288 701 334 710 383 710C432 710 478 701 521 683C564 664 601 639 632 607C663 574 687 536 705 492C722 448 731 401 731 350C731 304 724 261 709 221C694 180 674 144 648 112L751 0L675 0L609 73C579 47 545 27 507 12C468 -3 427 -10 383 -10C334 -10 288 -1 245 18C202 36 166 61 135 94C104 126 79 164 62 208C44 251 35 299 35 350ZM432 350L608 157C628 183 644 213 655 246C666 279 671 313 671 350C671 391 664 430 650 467C636 504 616 536 591 564C565 591 534 613 499 629C464 645 425 653 383 653C341 653 302 645 267 629C232 613 201 591 176 564C150 536 130 504 116 467C102 430 95 391 95 350C95 309 102 270 116 233C130 196 150 163 176 136C201 109 232 87 267 71C302 55 341 47 383 47C420 47 455 53 486 66C517 78 545 95 570 116L391 314L432 350Z"/>
<glyph unicode="&#x52;" horiz-adv-x="615" d="M538 0L268 358L150 358L150 0L90 0L90 700L329 700C361 700 388 696 410 688C431 680 450 669 465 655C482 640 496 621 506 600C515 578 520 554 520 529C520 504 515 480 506 459C496 437 482 418 465 403C450 390 433 379 414 372C394 364 369 359 340 358L610 0L538 0ZM326 415C351 415 371 418 386 423C401 428 413 436 423 445C434 456 443 468 450 483C457 497 460 512 460 529C460 546 457 561 450 576C443 590 434 602 423 613C413 622 401 630 386 635C371 640 351 643 326 643L150 643L150 415L326 415Z"/>
<glyph unicode="&#x53;" horiz-adv-x="516" d="M79 147C89 134 100 121 113 109C125 97 139 86 154 77C169 68 186 60 205 55C223 50 244 47 267 47C284 47 302 50 319 56C336 62 352 71 366 82C379 93 390 107 399 124C407 140 411 158 411 178C411 210 403 236 386 255C369 274 349 291 324 304C299 317 271 330 242 341C212 352 184 366 159 382C133 398 111 417 92 440C73 462 64 491 64 526C64 553 69 578 80 601C90 624 104 643 122 659C139 675 160 688 185 697C209 706 235 710 263 710C286 710 306 708 325 703C343 698 359 693 374 686C389 679 402 671 413 663C424 654 434 647 442 640L404 596C383 614 362 628 341 638C320 648 294 653 265 653C246 653 227 650 210 645C193 639 178 631 165 620C152 609 142 595 135 580C128 565 124 548 124 529C124 502 132 481 148 465C163 448 183 434 207 422C231 409 257 398 285 387C313 376 340 362 365 347C380 338 393 328 406 317C419 306 430 293 440 280C449 266 457 251 463 234C468 217 471 198 471 178C471 150 466 125 455 102C444 79 430 59 412 43C393 26 372 13 347 4C322 -5 296 -10 267 -10C172 -10 95 29 35 108L79 147Z"/>
<glyph unicode="&#x54;" horiz-adv-x="500" d="M480 700L480 643L280 643L280 0L220 0L220 643L20 643L20 700L480 700Z"/>
<glyph unicode="&#x55;" horiz-adv-x="720" d="M360 -10C309 -10 263 2 221 25C179 48 146 78 121 117C108 138 98 161 91 186C84 211 80 243 80 280L80 700L140 700L140 277C140 246 143 221 148 201C153 181 161 163 171 147C190 116 217 92 250 74C283 56 320 47 360 47C400 47 437 56 470 74C503 92 530 116 549 147C559 163 567 181 572 201C577 221 580 246 580 277L580 700L640 700L640 280C640 243 637 211 630 186C623 161 612 138 599 117C574 78 541 48 499 25C457 2 411 -10 360 -10Z"/>
<glyph unicode="&#x56;" horiz-adv-x="630" d="M620 700L335 0L295 0L10 700L72 700L315 100L558 700L620 700Z"/>
<glyph unicode="&#x57;" horiz-adv-x="942" d="M491 700L678 121L866 700L927 700L697 0L657 0L471 575L285 0L245 0L15 700L76 700L264 121L451 700L491 700Z"/>
<glyph unicode="&#x58;" horiz-adv-x="610" d="M20 0L266 384L64 700L131 700L305 429L479 700L546 700L344 384L590 0L522 0L305 339L88 0L20 0Z"/>
<glyph unicode="&#x59;" horiz-adv-x="560" d="M310 329L310 0L250 0L250 329L10 700L78 700L280 387L482 700L550 700L310 329Z"/>
<glyph unicode="&#x5a;" horiz-adv-x="585" d="M449 643L70 643L70 700L530 700L530 663L123 57L550 57L550 0L40 0L40 37L449 643Z"/>
<glyph unicode="&#x5b;" horiz-adv-x="425" d="M160 700L385 700L385 646L217 646L217 -146L385 -146L385 -200L160 -200L160 700Z"/>
<glyph unicode="&#x5c;" horiz-adv-x="395" d="M332 0L5 700L63 700L390 0L332 0Z"/>
<glyph unicode="&#x5d;" horiz-adv-x="425" d="M265 -200L40 -200L40 -146L208 -146L208 646L40 646L40 700L265 700L265 -200Z"/>
<glyph unicode="&#x5e;" horiz-adv-x="451" d="M207 700L244 700L421 350L362 350L225 616L89 350L30 350L207 700Z"/>
<glyph unicode="&#x5f;" horiz-adv-x="450" d="M430 0L430 -49L20 -49L20 0L430 0Z"/>
<glyph unicode="&#x60;" horiz-adv-x="280" d="M145 670L210 530L165 530L70 670L145 670Z"/>
<glyph unicode="&#x61;" horiz-adv-x="582" d="M442 0L442 67C425 44 402 25 374 11C346 -3 314 -10 278 -10C257 -10 234 -7 211 -1C188 6 165 17 142 33C112 54 88 82 71 116C54 149 45 187 45 228C45 266 53 301 68 334C83 366 104 393 130 415C149 430 171 443 196 452C221 461 247 466 275 466C308 466 339 460 368 447C397 434 421 416 442 393L442 456L497 456L497 0L442 0ZM440 320C435 329 427 338 418 349C408 360 396 370 382 379C368 388 352 396 334 403C316 409 297 412 276 412C257 412 238 409 219 403C200 396 182 386 166 373C146 356 130 336 119 311C108 286 102 258 102 228C102 196 109 167 122 141C135 114 152 93 174 78C189 68 205 60 222 54C239 47 258 44 277 44C311 44 342 53 371 71C399 88 422 113 440 144L440 320Z"/>
<glyph unicode="&#x62;" horiz-adv-x="582" d="M142 144C160 113 183 88 212 71C240 53 271 44 305 44C324 44 343 47 360 54C377 60 393 68 408 78C430 93 448 114 461 141C474 167 480 196 480 228C480 258 474 286 463 311C452 336 436 356 416 373C400 386 383 396 364 403C345 409 325 412 306 412C285 412 265 409 248 403C230 396 214 388 200 379C186 370 174 360 164 349C154 338 147 329 142 320L142 144ZM304 -10C268 -10 236 -3 208 11C180 25 157 44 140 67L140 0L85 0L85 710L142 710L142 395C163 418 188 436 217 448C245 460 275 466 307 466C335 466 361 461 386 452C411 443 433 430 452 415C478 393 499 366 514 334C529 301 537 266 537 228C537 187 528 149 511 116C494 82 470 54 440 33C417 17 394 6 371 -1C348 -7 325 -10 304 -10Z"/>
<glyph unicode="&#x63;" horiz-adv-x="505" d="M475 69C452 44 426 24 395 11C364 -3 330 -10 295 -10C263 -10 232 -5 203 7C174 18 148 33 125 54C102 75 84 100 71 129C57 158 50 191 50 228C50 260 56 290 68 319C79 348 96 373 117 395C138 417 163 434 192 447C221 460 252 466 286 466C324 466 357 459 386 446C415 433 439 416 460 395L424 354C407 371 387 385 364 396C341 407 315 412 286 412C262 412 239 407 218 398C196 389 177 376 161 359C144 342 131 323 122 301C112 278 107 254 107 228C107 203 112 179 121 157C130 134 143 115 160 98C177 81 197 68 220 59C243 49 267 44 294 44C347 44 394 65 434 107L475 69Z"/>
<glyph unicode="&#x64;" horiz-adv-x="582" d="M440 320C435 329 427 338 418 349C408 360 396 370 382 379C368 388 352 396 334 403C316 409 297 412 276 412C257 412 238 409 219 403C200 396 182 386 166 373C146 356 130 336 119 311C108 286 102 258 102 228C102 196 109 167 122 141C135 114 152 93 174 78C189 68 205 60 222 54C239 47 258 44 277 44C311 44 342 53 371 71C399 88 422 113 440 144L440 320ZM278 -10C257 -10 234 -7 211 -1C188 6 165 17 142 33C112 54 88 82 71 116C54 149 45 187 45 228C45 266 53 301 68 334C83 366 104 393 130 415C149 430 171 443 196 452C221 461 247 466 275 466C307 466 337 460 366 448C394 436 419 418 440 395L440 710L497 710L497 0L442 0L442 67C425 44 402 25 374 11C346 -3 314 -10 278 -10Z"/>
<glyph unicode="&#x65;" horiz-adv-x="520" d="M263 412C243 412 224 409 207 402C189 395 173 385 160 373C147 361 135 347 126 330C116 313 109 295 105 275L416 275C413 295 407 313 398 330C389 347 378 361 365 374C351 386 336 395 319 402C302 409 283 412 263 412ZM460 74C443 53 418 33 387 16C356 -1 318 -10 274 -10C242 -10 212 -4 184 7C156 18 132 35 112 56C91 77 75 102 63 131C51 160 45 193 45 228C45 261 50 292 61 321C72 350 87 375 106 396C125 417 148 434 175 447C202 460 231 466 263 466C294 466 322 460 348 449C373 438 396 422 415 402C434 382 448 359 459 332C470 305 475 275 475 243C475 241 475 238 475 235C475 232 475 228 474 223L102 223C103 199 107 176 116 155C124 133 135 114 150 98C165 81 183 68 204 59C225 49 248 44 274 44C304 44 331 50 356 62C381 73 402 90 420 112L460 74Z"/>
<glyph unicode="&#x66;" horiz-adv-x="360" d="M329 662C319 665 308 666 295 666C276 666 259 663 244 656C229 649 216 638 206 623C199 614 194 602 191 589C187 576 185 555 185 528L185 456L340 456L340 402L185 402L185 0L128 0L128 402L10 402L10 456L128 456L128 525C128 560 131 589 138 610C145 631 154 649 166 664C181 683 200 697 223 706C246 715 270 720 296 720C310 720 325 718 340 715L329 662Z"/>
<glyph unicode="&#x67;" horiz-adv-x="582" d="M497 2C497 -32 495 -61 492 -84C488 -107 481 -127 472 -145C455 -176 431 -202 398 -221C365 -240 324 -250 274 -250C230 -250 190 -241 155 -222C120 -203 90 -176 67 -141L112 -108C129 -135 152 -157 179 -173C206 -188 238 -196 275 -196C314 -196 345 -189 369 -174C393 -159 411 -141 422 -118C429 -104 434 -88 437 -70C439 -52 440 -29 440 0L440 65C423 43 400 25 373 11C346 -3 314 -10 278 -10C257 -10 234 -7 211 -1C188 6 165 17 142 33C112 54 88 82 71 116C54 149 45 187 45 228C45 266 53 301 68 334C83 366 104 393 130 415C149 430 171 443 196 452C221 461 247 466 275 466C308 466 339 460 368 447C397 434 421 416 442 393L442 456L497 456L497 2ZM440 320C435 329 427 338 418 349C408 360 396 370 382 379C368 388 352 396 334 403C316 409 297 412 276 412C257 412 238 409 219 403C200 396 182 386 166 373C146 356 130 336 119 311C108 286 102 258 102 228C102 196 109 167 122 141C135 114 152 93 174 78C189 68 205 60 222 54C239 47 258 44 277 44C311 44 342 53 371 71C399 88 422 113 440 144L440 320Z"/>
<glyph unicode="&#x68;" horiz-adv-x="577" d="M142 395C160 419 183 437 212 449C241 460 270 466 301 466C334 466 365 460 393 447C421 434 444 414 463 389C476 372 485 353 492 332C499 310 502 280 502 243L502 0L445 0L445 239C445 269 443 292 438 309C433 326 427 340 419 351C406 370 389 385 369 396C348 407 325 412 300 412C267 412 236 404 209 387C182 370 159 347 142 317L142 0L85 0L85 710L142 710L142 395Z"/>
<glyph unicode="&#x69;" horiz-adv-x="227" d="M85 456L142 456L142 0L85 0L85 456ZM63 614C63 628 68 640 78 650C87 660 99 665 113 665C127 665 139 660 149 650C159 640 164 628 164 614C164 600 159 588 149 579C139 569 127 564 113 564C99 564 87 569 78 579C68 588 63 600 63 614Z"/>
<glyph unicode="&#x6a;" horiz-adv-x="270" d="M-5 -194C0 -195 5 -196 9 -196C13 -196 17 -196 20 -196C38 -196 55 -192 71 -185C87 -178 100 -167 109 -153C116 -144 121 -132 124 -119C127 -106 128 -85 128 -58L128 456L185 456L185 -58C185 -94 182 -122 176 -143C170 -163 161 -180 149 -195C134 -212 116 -226 94 -236C72 -245 48 -250 23 -250C18 -250 12 -250 6 -250C-1 -249 -6 -248 -10 -247L-5 -194ZM106 614C106 628 111 640 121 650C130 660 142 665 156 665C170 665 182 660 192 650C202 640 207 628 207 614C207 600 202 588 192 579C182 569 170 564 156 564C142 564 130 569 121 579C111 588 106 600 106 614Z"/>
<glyph unicode="&#x6b;" horiz-adv-x="496" d="M401 0L142 241L142 0L85 0L85 710L142 710L142 266L375 456L460 456L210 251L481 0L401 0Z"/>
<glyph unicode="&#x6c;" horiz-adv-x="227" d="M85 710L142 710L142 0L85 0L85 710Z"/>
<glyph unicode="&#x6d;" horiz-adv-x="917" d="M140 394C157 415 179 433 206 446C233 459 262 466 294 466C332 466 366 457 396 440C426 423 449 399 465 369C473 380 483 392 494 404C505 415 517 426 532 435C547 444 563 452 582 458C601 463 621 466 644 466C682 466 716 457 746 440C775 423 798 399 815 370C824 355 830 337 835 317C840 297 842 272 842 241L842 0L785 0L785 234C785 266 783 291 778 308C773 325 767 340 759 352C747 370 731 385 712 396C692 407 669 412 644 412C626 412 609 409 593 403C577 397 562 389 549 380C536 370 524 359 513 346C502 333 494 320 487 306C488 297 490 287 491 276C492 265 492 254 492 241L492 0L435 0L435 234C435 266 433 291 428 308C423 325 417 340 409 352C397 370 381 385 362 396C342 407 319 412 294 412C263 412 233 403 206 386C179 369 157 346 142 317L142 0L85 0L85 456L140 456L140 394Z"/>
<glyph unicode="&#x6e;" horiz-adv-x="577" d="M140 392C159 417 182 435 211 448C239 460 269 466 301 466C334 466 365 460 393 447C421 434 444 414 463 389C476 372 485 353 492 332C499 310 502 280 502 243L502 0L445 0L445 239C445 269 443 292 438 309C433 326 427 340 419 351C406 370 389 385 369 396C348 407 325 412 300 412C267 412 236 404 209 387C182 370 159 347 142 317L142 0L85 0L85 456L140 456L140 392Z"/>
<glyph unicode="&#x6f;" horiz-adv-x="560" d="M458 228C458 253 454 277 445 300C436 322 423 341 408 358C392 375 373 388 352 398C330 407 306 412 280 412C254 412 230 407 209 398C187 388 168 375 153 358C137 341 125 322 116 300C107 277 102 253 102 228C102 203 107 179 116 157C125 134 137 115 153 98C168 81 187 68 209 59C230 49 254 44 280 44C306 44 330 49 352 59C373 68 392 81 408 98C423 115 436 134 445 157C454 179 458 203 458 228ZM515 228C515 195 509 165 498 136C486 107 470 81 449 60C428 39 403 22 374 9C345 -4 314 -10 280 -10C246 -10 215 -4 186 9C157 22 133 39 112 60C91 81 74 107 63 136C51 165 45 195 45 228C45 261 51 292 63 321C74 350 91 375 112 396C133 417 157 434 186 447C215 460 246 466 280 466C314 466 345 460 374 447C403 434 428 417 449 396C470 375 486 350 498 321C509 292 515 261 515 228Z"/>
<glyph unicode="&#x70;" horiz-adv-x="582" d="M85 -240L85 456L140 456L140 393C161 416 185 434 214 447C243 460 274 466 307 466C335 466 361 461 386 452C411 443 433 430 452 415C478 393 499 366 514 334C529 301 537 266 537 228C537 187 528 149 511 116C494 82 470 54 440 33C417 17 394 6 371 -1C348 -7 325 -10 304 -10C268 -10 236 -3 209 11C182 25 159 43 142 65L142 -240L85 -240ZM142 144C160 113 183 88 212 71C240 53 271 44 305 44C324 44 343 47 360 54C377 60 393 68 408 78C430 93 448 114 461 141C474 167 480 196 480 228C480 258 474 286 463 311C452 336 436 356 416 373C400 386 383 396 364 403C345 409 325 412 306 412C285 412 265 409 248 403C230 396 214 388 200 379C186 370 174 360 164 349C154 338 147 329 142 320L142 144Z"/>
<glyph unicode="&#x71;" horiz-adv-x="582" d="M440 -240L440 65C423 43 400 25 373 11C346 -3 314 -10 278 -10C257 -10 234 -7 211 -1C188 6 165 17 142 33C112 54 88 82 71 116C54 149 45 187 45 228C45 266 53 301 68 334C83 366 104 393 130 415C149 430 171 443 196 452C221 461 247 466 275 466C308 466 339 460 368 447C397 434 421 416 442 393L442 456L497 456L497 -240L440 -240ZM440 320C435 329 427 338 418 349C408 360 396 370 382 379C368 388 352 396 334 403C316 409 297 412 276 412C257 412 238 409 219 403C200 396 182 386 166 373C146 356 130 336 119 311C108 286 102 258 102 228C102 196 109 167 122 141C135 114 152 93 174 78C189 68 205 60 222 54C239 47 258 44 277 44C311 44 342 53 371 71C399 88 422 113 440 144L440 320Z"/>
<glyph unicode="&#x72;" horiz-adv-x="350" d="M312 411C309 412 304 412 297 412C290 412 286 412 285 412C254 412 225 403 199 384C173 365 154 341 142 311L142 0L85 0L85 456L142 456L142 396C147 404 155 412 164 421C173 429 183 436 196 443C208 450 222 455 237 460C252 464 268 466 286 466C290 466 296 466 304 466C311 465 317 465 320 464L312 411Z"/>
<glyph unicode="&#x73;" horiz-adv-x="425" d="M75 99C94 82 116 69 140 59C163 49 188 44 213 44C242 44 266 51 287 66C308 81 318 100 318 124C318 143 312 158 299 169C286 180 269 189 250 196C231 203 210 209 187 214C164 219 142 227 123 236C104 245 88 257 75 272C62 287 55 307 55 333C55 354 60 372 69 389C78 405 89 419 104 431C118 442 134 451 153 457C172 463 191 466 210 466C241 466 269 462 294 453C319 444 340 433 357 422L327 375C308 388 290 397 273 403C256 409 236 412 213 412C201 412 189 411 177 408C165 405 154 400 145 393C135 386 127 378 121 369C115 359 112 347 112 334C112 317 119 304 132 295C145 286 161 278 180 271C199 264 221 258 244 253C267 247 288 239 307 230C326 220 343 207 356 191C369 175 375 154 375 127C375 106 371 87 363 70C354 53 343 38 329 27C314 15 297 6 278 -1C259 -7 238 -10 217 -10C179 -10 145 -4 115 9C85 21 60 36 40 55L75 99Z"/>
<glyph unicode="&#x74;" horiz-adv-x="400" d="M345 402L190 402L190 152C190 131 192 115 196 104C199 93 204 83 210 76C227 55 253 44 286 44C293 44 300 44 309 45C318 46 326 47 335 50L345 -2C338 -5 328 -7 317 -8C306 -9 295 -10 286 -10C265 -10 243 -6 221 2C198 9 179 23 164 42C154 55 146 70 141 87C136 104 133 127 133 154L133 402L5 402L5 456L133 456L133 580L190 580L190 456L345 456L345 402Z"/>
<glyph unicode="&#x75;" horiz-adv-x="567" d="M427 62C411 41 389 23 362 10C335 -3 305 -10 273 -10C235 -10 201 -2 172 15C142 32 119 55 102 84C93 99 87 117 82 137C77 157 75 182 75 213L75 456L132 456L132 222C132 190 134 165 139 148C144 131 150 116 158 104C170 86 186 72 206 61C225 50 248 44 273 44C304 44 334 53 361 70C388 87 410 110 425 139L425 456L482 456L482 0L427 0L427 62Z"/>
<glyph unicode="&#x76;" horiz-adv-x="490" d="M227 0L15 456L77 456L245 92L413 456L475 456L264 0L227 0Z"/>
<glyph unicode="&#x77;" horiz-adv-x="762" d="M233 0L196 0L20 456L79 456L217 98L363 456L399 456L545 98L683 456L742 456L566 0L529 0L381 363L233 0Z"/>
<glyph unicode="&#x78;" horiz-adv-x="462" d="M231 207L82 0L15 0L191 245L40 456L107 456L231 283L355 456L422 456L271 245L447 0L380 0L231 207Z"/>
<glyph unicode="&#x79;" horiz-adv-x="487" d="M96 -240L221 37L15 456L79 456L250 102L411 456L472 456L156 -240L96 -240Z"/>
<glyph unicode="&#x7a;" horiz-adv-x="470" d="M344 402L65 402L65 456L430 456L430 422L125 54L440 54L440 0L40 0L40 34L344 402Z"/>
<glyph unicode="&#x7b;" horiz-adv-x="425" d="M174 250C190 243 201 232 208 217C215 202 218 183 218 162C218 124 216 88 213 55C209 22 207 -11 207 -44C207 -63 209 -80 212 -93C215 -106 221 -116 229 -124C236 -132 247 -138 260 -141C273 -144 289 -146 309 -146L335 -146L335 -200L305 -200C247 -200 207 -187 184 -162C161 -137 150 -99 150 -50C150 -12 152 25 155 60C158 95 160 131 160 166C160 191 154 209 142 219C130 228 113 233 90 233L90 267C113 267 130 272 142 282C154 291 160 309 160 334C160 369 158 405 155 440C152 475 150 512 150 550C150 599 161 636 184 662C207 687 247 700 305 700L335 700L335 646L309 646C289 646 273 644 260 641C247 638 236 632 229 624C221 616 215 606 212 593C209 580 207 563 207 544C207 511 209 478 213 445C216 412 218 376 218 338C218 317 215 298 208 283C201 268 190 257 174 250Z"/>
<glyph unicode="&#x7c;" horiz-adv-x="177" d="M60 700L117 700L117 -200L60 -200L60 700Z"/>
<glyph unicode="&#x7d;" horiz-adv-x="425" d="M251 250C235 257 224 268 217 283C210 298 207 317 207 338C207 376 209 412 213 445C216 478 218 511 218 544C218 563 216 580 213 593C210 606 204 616 197 624C189 632 179 638 166 641C153 644 136 646 116 646L90 646L90 700L120 700C178 700 218 687 241 662C264 636 275 599 275 550C275 512 273 475 270 440C267 405 265 369 265 334C265 309 271 291 283 282C295 272 312 267 335 267L335 233C312 233 295 228 283 219C271 209 265 191 265 166C265 131 267 95 270 60C273 25 275 -12 275 -50C275 -99 264 -137 241 -162C218 -187 178 -200 120 -200L90 -200L90 -146L116 -146C136 -146 153 -144 166 -141C179 -138 189 -132 197 -124C204 -116 210 -106 213 -93C216 -80 218 -63 218 -44C218 -11 216 22 213 55C209 88 207 124 207 162C207 183 210 202 217 217C224 232 235 243 251 250Z"/>
<glyph unicode="&#x7e;" horiz-adv-x="520" d="M40 219C49 252 64 279 85 298C105 317 131 327 162 327C183 327 202 322 219 313C236 304 253 294 268 283C283 272 298 262 313 253C327 244 341 239 356 239C377 239 394 247 405 262C416 277 426 295 433 316L480 293C471 260 456 233 436 214C415 195 389 185 358 185C337 185 318 190 301 199C284 208 267 218 252 229C237 240 222 250 208 259C193 268 179 273 164 273C143 273 126 265 115 250C104 235 94 217 87 196L40 219Z"/>
<glyph unicode="&#xa0;" horiz-adv-x="270" />
<glyph unicode="&#xa1;" horiz-adv-x="240" d="M102 250L139 250L149 4L149 -240L92 -240L92 4L102 250ZM68 414C68 429 73 441 83 451C93 461 105 466 120 466C135 466 147 461 157 451C167 441 172 429 172 414C172 399 167 387 157 377C147 367 135 362 120 362C105 362 93 367 83 377C73 387 68 399 68 414Z"/>
<glyph unicode="&#xa2;" horiz-adv-x="500" d="M470 69C449 46 425 28 398 15C371 2 341 -6 310 -9L310 -115L253 -115L253 -7C225 -3 198 5 173 18C148 31 126 47 107 67C88 87 73 111 62 138C51 165 45 195 45 228C45 258 50 287 60 314C70 341 84 365 103 386C121 407 143 424 169 438C194 452 222 461 253 464L253 581L310 581L310 464C341 461 368 453 392 440C416 427 437 412 455 395L419 354C402 371 382 385 359 396C336 407 310 412 281 412C257 412 234 407 213 398C191 389 172 376 156 359C139 342 126 323 117 301C107 278 102 254 102 228C102 203 107 179 116 157C125 134 138 115 155 98C172 81 192 68 215 59C238 49 262 44 289 44C342 44 389 65 429 107L470 69Z"/>
<glyph unicode="&#xa3;" horiz-adv-x="515" d="M55 391L139 391C130 413 121 435 113 458C105 480 101 503 101 526C101 553 106 578 115 601C124 623 137 642 154 659C171 675 190 688 212 697C234 706 258 710 284 710C305 710 325 707 342 702C359 696 375 688 389 679C403 670 415 659 425 648C435 637 443 626 450 615L404 583C399 591 394 599 387 608C380 616 372 624 363 631C353 638 342 644 329 649C316 654 301 656 284 656C271 656 257 654 242 649C227 644 214 636 201 625C188 614 178 601 170 585C162 568 158 549 158 526C158 505 163 483 172 461C181 439 190 416 201 391L329 391L329 337L221 337C226 322 231 306 234 291C237 276 238 259 238 242C238 217 235 194 230 174C225 154 218 136 211 121C203 106 195 92 187 81C178 70 171 61 164 54L485 54L485 0L35 0L35 34C56 42 75 53 93 66C110 79 126 95 139 113C152 131 162 151 170 173C177 194 181 218 181 243C181 260 179 276 175 291C171 306 166 322 161 337L55 337L55 391Z"/>
<glyph unicode="&#xa4;" horiz-adv-x="540" d="M74 351C74 373 78 394 85 414C92 434 102 452 115 469L40 544L77 581L152 506C169 519 187 529 207 536C227 543 248 547 270 547C293 547 314 543 334 536C354 529 372 519 389 506L463 581L500 544L426 469C439 452 449 434 456 414C463 394 466 373 466 351C466 328 463 307 456 287C449 267 439 249 426 232L500 158L463 121L389 195C372 182 354 173 334 166C314 159 293 155 270 155C248 155 227 159 207 166C187 173 169 182 152 195L77 121L40 158L115 232C102 249 92 267 85 287C78 307 74 328 74 351ZM131 351C131 332 135 314 142 297C149 280 159 265 172 253C184 240 199 230 216 223C233 216 251 212 270 212C289 212 308 216 325 223C342 230 356 240 369 253C381 265 391 280 398 297C405 314 409 332 409 351C409 370 405 389 398 406C391 423 381 437 369 450C356 462 342 472 325 479C308 486 289 490 270 490C251 490 233 486 216 479C199 472 184 462 172 450C159 437 149 423 142 406C135 389 131 370 131 351Z"/>
<glyph unicode="&#xa5;" horiz-adv-x="560" d="M391 455L500 455L500 401L356 401L310 329L310 300L500 300L500 246L310 246L310 0L250 0L250 246L60 246L60 300L250 300L250 329L203 401L60 401L60 455L168 455L10 700L78 700L280 387L482 700L550 700L391 455Z"/>
<glyph unicode="&#xa6;" horiz-adv-x="217" d="M80 190L137 190L137 -200L80 -200L80 190ZM80 700L137 700L137 310L80 310L80 700Z"/>
<glyph unicode="&#xa7;" horiz-adv-x="580" d="M520 207C520 175 513 146 498 121C483 96 463 74 439 57C452 44 463 29 471 12C479 -5 483 -27 483 -52C483 -79 478 -103 467 -125C456 -146 442 -165 424 -181C406 -196 385 -208 361 -217C336 -226 311 -230 284 -230C261 -230 241 -228 223 -223C204 -218 188 -213 173 -206C158 -199 145 -191 134 -183C123 -175 113 -167 105 -160L142 -117C163 -135 184 -149 206 -159C227 -168 253 -173 282 -173C301 -173 320 -170 337 -165C354 -159 369 -151 382 -141C395 -130 405 -118 412 -103C419 -88 423 -71 423 -52C423 -33 419 -16 410 -3C401 11 390 23 376 33C361 43 345 52 326 59C307 66 288 72 268 78C243 86 219 95 194 105C169 114 147 126 127 141C107 156 91 174 79 195C66 216 60 242 60 273C60 305 68 334 83 359C98 384 117 405 141 422C128 435 117 451 109 468C101 485 97 507 97 532C97 559 102 583 113 605C124 626 138 645 156 661C174 676 195 688 219 697C243 706 269 710 296 710C319 710 339 708 358 703C376 698 392 693 407 686C422 679 435 671 446 663C457 654 467 647 475 640L438 597C417 615 396 629 375 639C353 648 327 653 298 653C279 653 261 650 244 645C227 639 212 631 199 620C186 609 175 597 168 582C161 567 157 551 157 532C157 513 161 496 170 483C179 469 190 457 205 447C219 437 235 429 254 422C273 415 292 408 312 402C337 394 361 385 386 376C411 366 433 354 453 339C473 324 489 306 502 285C514 264 520 238 520 207ZM319 340C298 347 276 355 255 362C234 369 213 377 194 386C174 375 157 359 142 340C127 321 119 298 119 273C119 254 123 238 131 225C139 211 150 199 163 189C176 178 191 169 208 162C225 154 242 147 261 140C282 133 303 125 324 118C345 111 366 102 385 93C406 104 424 120 439 139C454 158 461 181 461 207C461 226 457 242 449 256C441 269 431 281 418 292C405 303 390 312 373 320C356 327 338 334 319 340Z"/>
<glyph unicode="&#xa8;" horiz-adv-x="404" d="M233 594C233 608 238 620 248 630C257 640 269 645 283 645C297 645 309 640 319 630C329 620 334 608 334 594C334 580 329 568 319 559C309 549 297 544 283 544C269 544 257 549 248 559C238 568 233 580 233 594ZM70 594C70 608 75 620 85 630C94 640 106 645 120 645C134 645 146 640 156 630C166 620 171 608 171 594C171 580 166 568 156 559C146 549 134 544 120 544C106 544 94 549 85 559C75 568 70 580 70 594Z"/>
<glyph unicode="&#xa9;" horiz-adv-x="840" d="M525 465C512 476 498 486 482 494C465 502 446 506 424 506C404 506 385 502 368 495C350 488 335 477 322 464C309 451 299 435 292 416C285 397 281 375 281 352C281 330 285 310 292 291C299 272 309 255 322 242C335 229 350 218 368 211C385 203 405 199 427 199C452 199 474 203 491 211C508 219 523 229 537 241L564 206C547 191 527 178 504 169C480 160 454 155 427 155C398 155 372 160 349 171C325 181 305 195 288 213C271 230 257 251 248 275C239 299 234 325 234 352C234 380 239 406 249 430C258 454 272 475 289 493C306 510 326 524 349 535C372 545 397 550 424 550C451 550 475 546 496 537C517 528 536 515 552 500L525 465ZM70 350C70 398 79 443 98 486C116 529 141 566 173 598C204 629 241 654 284 673C327 691 372 700 420 700C468 700 513 691 556 673C599 654 636 629 668 598C699 566 724 529 743 486C761 443 770 398 770 350C770 302 761 257 743 214C724 171 699 134 668 103C636 71 599 46 556 28C513 9 468 0 420 0C372 0 327 9 284 28C241 46 204 71 173 103C141 134 116 171 98 214C79 257 70 302 70 350ZM117 350C117 309 125 270 141 233C157 196 179 163 206 136C233 109 266 87 303 71C340 55 379 47 420 47C461 47 500 55 537 71C574 87 606 109 634 136C661 163 683 196 699 233C715 270 723 309 723 350C723 391 715 430 699 467C683 504 661 536 634 564C606 591 574 613 537 629C500 645 461 653 420 653C379 653 340 645 303 629C266 613 233 591 206 564C179 536 157 504 141 467C125 430 117 391 117 350Z"/>
<glyph unicode="&#xaa;" horiz-adv-x="406" d="M297 621C286 633 274 643 259 652C244 660 226 664 207 664C174 664 148 654 129 633C109 612 99 586 99 555C99 524 109 499 129 478C148 457 174 446 207 446C226 446 244 450 259 459C274 467 286 477 297 489L297 621ZM206 400C183 400 163 404 144 412C125 420 108 431 94 445C80 459 69 475 62 494C54 513 50 533 50 555C50 577 54 597 62 616C69 635 80 651 94 665C108 679 125 690 144 698C163 706 183 710 206 710C229 710 249 706 264 697C279 688 290 679 297 671L297 700L346 700L346 410L297 410L297 439C290 431 279 423 264 414C249 405 229 400 206 400Z"/>
<glyph unicode="&#xab;" horiz-adv-x="535" d="M495 420L337 235L495 50L424 50L280 218L280 252L424 420L495 420ZM295 420L137 235L295 50L224 50L80 218L80 252L224 420L295 420Z"/>
<glyph unicode="&#xac;" horiz-adv-x="530" d="M421 317L55 317L55 371L475 371L475 141L421 141L421 317Z"/>
<glyph unicode="&#xad;" horiz-adv-x="420" d="M340 274L340 225L80 225L80 274L340 274Z"/>
<glyph unicode="&#xae;" horiz-adv-x="840" d="M70 350C70 398 79 443 98 486C116 529 141 566 173 598C204 629 241 654 284 673C327 691 372 700 420 700C468 700 513 691 556 673C599 654 636 629 668 598C699 566 724 529 743 486C761 443 770 398 770 350C770 302 761 257 743 214C724 171 699 134 668 103C636 71 599 46 556 28C513 9 468 0 420 0C372 0 327 9 284 28C241 46 204 71 173 103C141 134 116 171 98 214C79 257 70 302 70 350ZM117 350C117 309 125 270 141 233C157 196 179 163 206 136C233 109 266 87 303 71C340 55 379 47 420 47C461 47 500 55 537 71C574 87 606 109 634 136C661 163 683 196 699 233C715 270 723 309 723 350C723 391 715 430 699 467C683 504 661 536 634 564C606 591 574 613 537 629C500 645 461 653 420 653C379 653 340 645 303 629C266 613 233 591 206 564C179 536 157 504 141 467C125 430 117 391 117 350ZM521 161L392 349L342 349L342 161L295 161L295 544L427 544C450 544 469 542 482 537C495 532 507 524 516 515C535 496 545 473 545 446C545 419 535 395 516 376C508 368 499 362 489 358C478 353 464 350 447 349L574 161L521 161ZM424 392C443 392 456 394 465 397C473 400 480 405 485 411C494 421 498 433 498 446C498 459 494 471 485 481C480 487 473 492 465 495C456 498 443 500 424 500L342 500L342 392L424 392Z"/>
<glyph unicode="&#xaf;" horiz-adv-x="420" d="M350 626L350 576L70 576L70 626L350 626Z"/>
<glyph unicode="&#xb0;" horiz-adv-x="390" d="M40 555C40 576 44 597 52 616C60 635 71 651 85 665C99 679 116 690 135 698C154 706 174 710 195 710C216 710 237 706 256 698C275 690 291 679 305 665C319 651 330 635 338 616C346 597 350 576 350 555C350 534 346 514 338 495C330 476 319 459 305 445C291 431 275 420 256 412C237 404 216 400 195 400C174 400 154 404 135 412C116 420 99 431 85 445C71 459 60 476 52 495C44 514 40 534 40 555ZM91 555C91 541 94 528 99 515C104 502 112 491 121 482C130 473 141 465 154 460C167 455 180 452 194 452C208 452 221 455 234 460C247 465 258 473 268 482C277 491 285 502 290 515C295 528 298 541 298 555C298 569 295 582 290 595C285 608 277 619 268 629C258 638 247 646 234 651C221 656 208 659 194 659C180 659 167 656 154 651C141 646 130 638 121 629C112 619 104 608 99 595C94 582 91 569 91 555Z"/>
<glyph unicode="&#xb1;" horiz-adv-x="530" d="M292 271L292 110L238 110L238 271L55 271L55 325L238 325L238 486L292 486L292 325L475 325L475 271L292 271ZM55 26L55 80L475 80L475 26L55 26Z"/>
<glyph unicode="&#xb2;" horiz-adv-x="278" d="M29 630C34 647 41 660 50 671C59 682 68 690 78 696C88 701 98 705 108 707C118 709 127 710 136 710C151 710 166 707 179 702C192 696 203 688 213 679C222 669 230 658 236 645C241 632 244 619 244 604C244 581 239 560 228 543C217 525 204 508 191 492L103 384L248 384L248 340L25 340L25 364L150 516C165 533 176 548 185 561C193 574 197 588 197 604C197 621 191 635 180 648C168 660 153 666 136 666C120 666 107 661 96 652C85 642 76 629 70 613L29 630Z"/>
<glyph unicode="&#xb3;" horiz-adv-x="282" d="M154 576C178 570 198 559 215 542C226 531 235 518 242 503C249 488 252 471 252 454C252 437 249 422 243 407C236 392 227 378 216 367C205 356 191 347 176 340C161 333 144 330 125 330C101 330 79 336 58 347C37 358 21 373 10 391L48 418C55 404 66 393 81 386C96 378 110 374 125 374C148 374 167 382 182 397C197 412 205 431 205 454C205 479 197 499 180 514C163 529 142 536 119 536C110 536 102 535 95 534C88 532 82 530 79 529L79 553L159 656L27 656L27 700L233 700L233 676L154 576Z"/>
<glyph unicode="&#xb4;" horiz-adv-x="280" d="M210 670L115 530L70 530L135 670L210 670Z"/>
<glyph unicode="&#xb5;" horiz-adv-x="577" d="M283 -10C254 -10 228 -5 204 7C179 18 159 34 142 55L142 -240L85 -240L85 456L142 456L142 222C142 190 144 165 149 148C154 131 160 116 168 104C180 86 196 72 216 61C235 50 258 44 283 44C314 44 344 53 371 70C398 87 420 110 435 139L435 456L492 456L492 0L437 0L437 62C421 41 399 23 372 10C345 -3 315 -10 283 -10Z"/>
<glyph unicode="&#xb6;" horiz-adv-x="655" d="M605 700L605 646L505 646L505 -200L448 -200L448 646L302 646L302 -200L245 -200L245 270C215 270 187 276 161 287C135 298 112 314 93 333C74 352 58 375 47 401C36 427 30 455 30 485C30 508 34 531 41 552C48 573 58 593 71 611C84 628 99 644 117 657C134 670 154 681 175 688C186 692 199 695 212 697C225 699 242 700 265 700L605 700ZM87 485C87 463 91 442 100 423C108 403 119 386 133 371C147 356 164 345 183 337C202 328 223 324 245 324L245 646C223 646 202 642 183 634C164 625 147 614 133 599C119 584 108 567 100 548C91 528 87 507 87 485Z"/>
<glyph unicode="&#xb7;" horiz-adv-x="304" d="M100 228C100 243 105 255 115 265C125 275 137 280 152 280C167 280 179 275 189 265C199 255 204 243 204 228C204 213 199 201 189 191C179 181 167 176 152 176C137 176 125 181 115 191C105 201 100 213 100 228Z"/>
<glyph unicode="&#xb8;" horiz-adv-x="240" d="M125 10L170 10L145 -140L70 -140L125 10Z"/>
<glyph unicode="&#xb9;" horiz-adv-x="205" d="M30 602L30 650L123 700L150 700L150 340L103 340L103 639L30 602Z"/>
<glyph unicode="&#xba;" horiz-adv-x="406" d="M50 555C50 576 54 596 61 615C68 634 79 650 93 664C106 678 122 689 141 698C160 706 180 710 203 710C226 710 246 706 265 698C284 689 300 678 313 664C326 650 337 634 345 615C352 596 356 576 356 555C356 534 352 514 345 495C337 476 326 460 313 446C300 432 284 421 265 413C246 404 226 400 203 400C180 400 160 404 141 413C122 421 106 432 93 446C79 460 68 476 61 495C54 514 50 534 50 555ZM99 555C99 540 102 526 107 513C112 500 120 488 129 478C138 468 149 460 162 455C175 449 188 446 203 446C218 446 231 449 244 455C257 460 268 468 277 478C286 488 294 500 299 513C304 526 307 540 307 555C307 570 304 584 299 597C294 610 286 622 277 632C268 642 257 650 244 656C231 661 218 664 203 664C188 664 174 661 161 656C148 650 137 642 128 632C119 622 112 610 107 597C102 584 99 570 99 555Z"/>
<glyph unicode="&#xbb;" horiz-adv-x="535" d="M111 420L255 252L255 218L111 50L40 50L198 235L40 420L111 420ZM311 420L455 252L455 218L311 50L240 50L398 235L240 420L311 420Z"/>
<glyph unicode="&#xbc;" horiz-adv-x="555" d="M30 602L30 650L123 700L150 700L150 340L103 340L103 639L30 602ZM40 0L448 700L500 700L92 0L40 0ZM265 109L458 360L485 360L485 129L545 129L545 85L485 85L485 0L438 0L438 85L265 85L265 109ZM438 129L438 260L337 129L438 129Z"/>
<glyph unicode="&#xbd;" horiz-adv-x="593" d="M30 602L30 650L123 700L150 700L150 340L103 340L103 639L30 602ZM40 0L448 700L500 700L92 0L40 0ZM344 290C349 307 356 320 365 331C374 342 383 350 393 356C403 361 413 365 423 367C433 369 442 370 451 370C466 370 481 367 494 362C507 356 518 348 528 339C537 329 545 318 551 305C556 292 559 279 559 264C559 241 554 220 543 203C532 185 519 168 506 152L418 44L563 44L563 0L340 0L340 24L465 176C480 193 491 208 500 221C508 234 512 248 512 264C512 281 506 295 495 308C483 320 468 326 451 326C435 326 422 321 411 312C400 302 391 289 385 273L344 290Z"/>
<glyph unicode="&#xbe;" horiz-adv-x="603" d="M154 576C178 570 198 559 215 542C226 531 235 518 242 503C249 488 252 471 252 454C252 437 249 422 243 407C236 392 227 378 216 367C205 356 191 347 176 340C161 333 144 330 125 330C101 330 79 336 58 347C37 358 21 373 10 391L48 418C55 404 66 393 81 386C96 378 110 374 125 374C148 374 167 382 182 397C197 412 205 431 205 454C205 479 197 499 180 514C163 529 142 536 119 536C110 536 102 535 95 534C88 532 82 530 79 529L79 553L159 656L27 656L27 700L233 700L233 676L154 576ZM88 0L496 700L548 700L140 0L88 0ZM313 109L506 360L533 360L533 129L593 129L593 85L533 85L533 0L486 0L486 85L313 85L313 109ZM486 129L486 260L385 129L486 129Z"/>
<glyph unicode="&#xbf;" horiz-adv-x="500" d="M430 -115C425 -134 416 -152 405 -169C393 -186 379 -200 362 -212C345 -224 325 -233 304 -240C282 -247 259 -250 235 -250C206 -250 180 -245 156 -236C131 -227 110 -214 92 -198C74 -181 60 -162 50 -140C40 -118 35 -95 35 -70C35 -49 38 -31 44 -15C49 2 57 17 66 31C75 44 86 56 98 67C109 78 121 87 133 96C146 105 158 114 171 122C183 129 194 137 204 144C214 151 222 158 228 165C234 172 237 179 237 187C237 196 233 205 226 215C219 224 211 233 203 240L245 280C262 263 275 247 283 234C290 220 294 204 294 187C294 170 290 155 282 143C273 131 263 120 250 110C237 100 223 90 208 81C192 72 177 62 163 51C144 37 128 20 114 1C99 -18 92 -42 92 -70C92 -87 96 -104 103 -119C110 -134 119 -148 132 -159C145 -170 160 -179 177 -186C194 -193 214 -196 235 -196C271 -196 302 -187 328 -169C353 -150 369 -127 376 -99L430 -115ZM292 414C292 399 287 387 277 377C267 367 255 362 240 362C225 362 213 367 203 377C193 387 188 399 188 414C188 429 193 441 203 451C213 461 225 466 240 466C255 466 267 461 277 451C287 441 292 429 292 414Z"/>
<glyph unicode="&#xc0;" horiz-adv-x="654" d="M347 700L649 0L589 0L497 211L157 211L65 0L5 0L307 700L347 700ZM181 268L472 268L327 606L181 268ZM282 880L347 740L302 740L207 880L282 880Z"/>
<glyph unicode="&#xc1;" horiz-adv-x="654" d="M347 700L649 0L589 0L497 211L157 211L65 0L5 0L307 700L347 700ZM181 268L472 268L327 606L181 268ZM447 880L352 740L307 740L372 880L447 880Z"/>
<glyph unicode="&#xc2;" horiz-adv-x="654" d="M347 700L649 0L589 0L497 211L157 211L65 0L5 0L307 700L347 700ZM181 268L472 268L327 606L181 268ZM242 740L197 740L292 880L362 880L457 740L412 740L327 834L242 740Z"/>
<glyph unicode="&#xc3;" horiz-adv-x="654" d="M347 700L649 0L589 0L497 211L157 211L65 0L5 0L307 700L347 700ZM181 268L472 268L327 606L181 268ZM187 777C187 787 189 797 192 807C195 817 200 826 206 834C212 841 220 848 229 853C238 858 249 860 261 860C274 860 286 858 297 853C308 848 318 843 328 838C338 832 348 827 357 822C366 817 376 815 385 815C396 815 404 819 410 826C416 833 420 844 421 860L461 849C461 839 459 829 456 819C453 809 448 800 442 793C436 785 428 779 419 774C410 769 399 766 387 766C374 766 363 768 352 773C341 778 330 783 320 789C310 794 300 799 291 804C282 809 272 811 263 811C252 811 244 808 238 801C232 794 228 782 227 766L187 777Z"/>
<glyph unicode="&#xc4;" horiz-adv-x="654" d="M347 700L649 0L589 0L497 211L157 211L65 0L5 0L307 700L347 700ZM181 268L472 268L327 606L181 268ZM358 804C358 818 363 830 373 840C382 850 394 855 408 855C422 855 434 850 444 840C454 830 459 818 459 804C459 790 454 778 444 769C434 759 422 754 408 754C394 754 382 759 373 769C363 778 358 790 358 804ZM195 804C195 818 200 830 210 840C219 850 231 855 245 855C259 855 271 850 281 840C291 830 296 818 296 804C296 790 291 778 281 769C271 759 259 754 245 754C231 754 219 759 210 769C200 778 195 790 195 804Z"/>
<glyph unicode="&#xc5;" horiz-adv-x="654" d="M347 700L649 0L589 0L497 211L157 211L65 0L5 0L307 700L347 700ZM181 268L472 268L327 606L181 268ZM237 820C237 845 246 867 263 884C280 901 302 910 327 910C352 910 374 901 391 884C408 867 417 845 417 820C417 795 408 773 391 756C374 739 352 730 327 730C302 730 280 739 263 756C246 773 237 795 237 820ZM277 820C277 806 282 794 292 785C301 775 313 770 327 770C341 770 353 775 363 785C372 794 377 806 377 820C377 834 372 846 363 856C353 865 341 870 327 870C313 870 301 865 292 856C282 846 277 834 277 820Z"/>
<glyph unicode="&#xc6;" horiz-adv-x="870" d="M500 643L500 415L750 415L750 358L500 358L500 57L830 57L830 0L440 0L440 211L173 211L46 0L-20 0L398 700L820 700L820 643L500 643ZM440 268L440 660L207 268L440 268Z"/>
<glyph unicode="&#xc7;" horiz-adv-x="685" d="M353 -8C306 -3 264 9 225 29C186 48 152 74 124 106C96 137 74 174 59 216C43 257 35 302 35 350C35 401 44 448 62 492C79 535 104 573 135 606C166 638 203 663 246 682C289 701 335 710 386 710C436 710 483 701 528 682C572 663 609 637 640 603L599 562C574 589 544 611 507 628C470 645 430 653 386 653C344 653 305 645 270 630C234 614 203 592 178 565C152 537 132 505 117 468C102 431 95 392 95 350C95 307 102 268 117 231C132 194 152 162 179 135C205 108 236 86 273 71C309 55 349 47 392 47C440 47 484 57 525 78C565 99 597 125 622 157L665 119C635 81 597 50 551 27C504 4 454 -9 401 -10L380 -140L305 -140L353 -8Z"/>
<glyph unicode="&#xc8;" horiz-adv-x="520" d="M150 643L150 415L400 415L400 358L150 358L150 57L480 57L480 0L90 0L90 700L470 700L470 643L150 643ZM242 880L307 740L262 740L167 880L242 880Z"/>
<glyph unicode="&#xc9;" horiz-adv-x="520" d="M150 643L150 415L400 415L400 358L150 358L150 57L480 57L480 0L90 0L90 700L470 700L470 643L150 643ZM394 880L299 740L254 740L319 880L394 880Z"/>
<glyph unicode="&#xca;" horiz-adv-x="520" d="M150 643L150 415L400 415L400 358L150 358L150 57L480 57L480 0L90 0L90 700L470 700L470 643L150 643ZM200 740L155 740L250 880L320 880L415 740L370 740L285 834L200 740Z"/>
<glyph unicode="&#xcb;" horiz-adv-x="520" d="M150 643L150 415L400 415L400 358L150 358L150 57L480 57L480 0L90 0L90 700L470 700L470 643L150 643ZM316 804C316 818 321 830 331 840C340 850 352 855 366 855C380 855 392 850 402 840C412 830 417 818 417 804C417 790 412 778 402 769C392 759 380 754 366 754C352 754 340 759 331 769C321 778 316 790 316 804ZM153 804C153 818 158 830 168 840C177 850 189 855 203 855C217 855 229 850 239 840C249 830 254 818 254 804C254 790 249 778 239 769C229 759 217 754 203 754C189 754 177 759 168 769C158 778 153 790 153 804Z"/>
<glyph unicode="&#xcc;" horiz-adv-x="240" d="M90 700L150 700L150 0L90 0L90 700ZM76 880L141 740L96 740L1 880L76 880Z"/>
<glyph unicode="&#xcd;" horiz-adv-x="240" d="M90 700L150 700L150 0L90 0L90 700ZM240 880L145 740L100 740L165 880L240 880Z"/>
<glyph unicode="&#xce;" horiz-adv-x="240" d="M90 700L150 700L150 0L90 0L90 700ZM36 740L-9 740L86 880L156 880L251 740L206 740L121 834L36 740Z"/>
<glyph unicode="&#xcf;" horiz-adv-x="240" d="M90 700L150 700L150 0L90 0L90 700ZM152 804C152 818 157 830 167 840C176 850 188 855 202 855C216 855 228 850 238 840C248 830 253 818 253 804C253 790 248 778 238 769C228 759 216 754 202 754C188 754 176 759 167 769C157 778 152 790 152 804ZM-11 804C-11 818 -6 830 4 840C13 850 25 855 39 855C53 855 65 850 75 840C85 830 90 818 90 804C90 790 85 778 75 769C65 759 53 754 39 754C25 754 13 759 4 769C-6 778 -11 790 -11 804Z"/>
<glyph unicode="&#xd0;" horiz-adv-x="705" d="M-10 415L90 415L90 700L290 700C346 700 393 694 431 683C469 672 502 655 531 634C574 602 608 561 633 512C658 463 670 409 670 350C670 291 658 237 633 188C608 139 574 98 531 66C502 45 469 28 431 17C393 6 346 0 290 0L90 0L90 358L-10 358L-10 415ZM610 350C610 397 600 441 581 482C562 523 535 557 500 584C475 603 445 618 412 628C378 638 336 643 287 643L150 643L150 415L350 415L350 358L150 358L150 57L287 57C336 57 378 62 412 72C445 82 475 97 500 116C535 143 562 177 581 218C600 259 610 303 610 350Z"/>
<glyph unicode="&#xd1;" horiz-adv-x="750" d="M90 700L130 700L600 117L600 700L660 700L660 0L620 0L150 583L150 0L90 0L90 700ZM237 777C237 787 239 797 242 807C245 817 250 826 256 834C262 841 270 848 279 853C288 858 299 860 311 860C324 860 336 858 347 853C358 848 368 843 378 838C388 832 398 827 407 822C416 817 426 815 435 815C446 815 454 819 460 826C466 833 470 844 471 860L511 849C511 839 509 829 506 819C503 809 498 800 492 793C486 785 478 779 469 774C460 769 449 766 437 766C424 766 413 768 402 773C391 778 380 783 370 789C360 794 350 799 341 804C332 809 322 811 313 811C302 811 294 808 288 801C282 794 278 782 277 766L237 777Z"/>
<glyph unicode="&#xd2;" horiz-adv-x="766" d="M35 350C35 401 44 448 62 492C79 536 104 574 135 607C166 639 202 664 245 683C288 701 334 710 383 710C432 710 478 701 521 683C564 664 601 639 632 607C663 574 687 536 705 492C722 448 731 401 731 350C731 299 722 251 705 208C687 164 663 126 632 94C601 61 564 36 521 18C478 -1 432 -10 383 -10C334 -10 288 -1 245 18C202 36 166 61 135 94C104 126 79 164 62 208C44 251 35 299 35 350ZM95 350C95 309 102 270 116 233C130 196 150 163 176 136C201 109 232 87 267 71C302 55 341 47 383 47C425 47 464 55 499 71C534 87 565 109 591 136C616 163 636 196 650 233C664 270 671 309 671 350C671 391 664 430 650 467C636 504 616 536 591 564C565 591 534 613 499 629C464 645 425 653 383 653C341 653 302 645 267 629C232 613 201 591 176 564C150 536 130 504 116 467C102 430 95 391 95 350ZM341 880L406 740L361 740L266 880L341 880Z"/>
<glyph unicode="&#xd3;" horiz-adv-x="766" d="M35 350C35 401 44 448 62 492C79 536 104 574 135 607C166 639 202 664 245 683C288 701 334 710 383 710C432 710 478 701 521 683C564 664 601 639 632 607C663 574 687 536 705 492C722 448 731 401 731 350C731 299 722 251 705 208C687 164 663 126 632 94C601 61 564 36 521 18C478 -1 432 -10 383 -10C334 -10 288 -1 245 18C202 36 166 61 135 94C104 126 79 164 62 208C44 251 35 299 35 350ZM95 350C95 309 102 270 116 233C130 196 150 163 176 136C201 109 232 87 267 71C302 55 341 47 383 47C425 47 464 55 499 71C534 87 565 109 591 136C616 163 636 196 650 233C664 270 671 309 671 350C671 391 664 430 650 467C636 504 616 536 591 564C565 591 534 613 499 629C464 645 425 653 383 653C341 653 302 645 267 629C232 613 201 591 176 564C150 536 130 504 116 467C102 430 95 391 95 350ZM502 880L407 740L362 740L427 880L502 880Z"/>
<glyph unicode="&#xd4;" horiz-adv-x="766" d="M35 350C35 401 44 448 62 492C79 536 104 574 135 607C166 639 202 664 245 683C288 701 334 710 383 710C432 710 478 701 521 683C564 664 601 639 632 607C663 574 687 536 705 492C722 448 731 401 731 350C731 299 722 251 705 208C687 164 663 126 632 94C601 61 564 36 521 18C478 -1 432 -10 383 -10C334 -10 288 -1 245 18C202 36 166 61 135 94C104 126 79 164 62 208C44 251 35 299 35 350ZM95 350C95 309 102 270 116 233C130 196 150 163 176 136C201 109 232 87 267 71C302 55 341 47 383 47C425 47 464 55 499 71C534 87 565 109 591 136C616 163 636 196 650 233C664 270 671 309 671 350C671 391 664 430 650 467C636 504 616 536 591 564C565 591 534 613 499 629C464 645 425 653 383 653C341 653 302 645 267 629C232 613 201 591 176 564C150 536 130 504 116 467C102 430 95 391 95 350ZM298 740L253 740L348 880L418 880L513 740L468 740L383 834L298 740Z"/>
<glyph unicode="&#xd5;" horiz-adv-x="766" d="M35 350C35 401 44 448 62 492C79 536 104 574 135 607C166 639 202 664 245 683C288 701 334 710 383 710C432 710 478 701 521 683C564 664 601 639 632 607C663 574 687 536 705 492C722 448 731 401 731 350C731 299 722 251 705 208C687 164 663 126 632 94C601 61 564 36 521 18C478 -1 432 -10 383 -10C334 -10 288 -1 245 18C202 36 166 61 135 94C104 126 79 164 62 208C44 251 35 299 35 350ZM95 350C95 309 102 270 116 233C130 196 150 163 176 136C201 109 232 87 267 71C302 55 341 47 383 47C425 47 464 55 499 71C534 87 565 109 591 136C616 163 636 196 650 233C664 270 671 309 671 350C671 391 664 430 650 467C636 504 616 536 591 564C565 591 534 613 499 629C464 645 425 653 383 653C341 653 302 645 267 629C232 613 201 591 176 564C150 536 130 504 116 467C102 430 95 391 95 350ZM246 777C246 787 248 797 251 807C254 817 259 826 265 834C271 841 279 848 288 853C297 858 308 860 320 860C333 860 345 858 356 853C367 848 377 843 387 838C397 832 407 827 416 822C425 817 435 815 444 815C455 815 463 819 469 826C475 833 479 844 480 860L520 849C520 839 518 829 515 819C512 809 507 800 501 793C495 785 487 779 478 774C469 769 458 766 446 766C433 766 422 768 411 773C400 778 389 783 379 789C369 794 359 799 350 804C341 809 331 811 322 811C311 811 303 808 297 801C291 794 287 782 286 766L246 777Z"/>
<glyph unicode="&#xd6;" horiz-adv-x="766" d="M35 350C35 401 44 448 62 492C79 536 104 574 135 607C166 639 202 664 245 683C288 701 334 710 383 710C432 710 478 701 521 683C564 664 601 639 632 607C663 574 687 536 705 492C722 448 731 401 731 350C731 299 722 251 705 208C687 164 663 126 632 94C601 61 564 36 521 18C478 -1 432 -10 383 -10C334 -10 288 -1 245 18C202 36 166 61 135 94C104 126 79 164 62 208C44 251 35 299 35 350ZM95 350C95 309 102 270 116 233C130 196 150 163 176 136C201 109 232 87 267 71C302 55 341 47 383 47C425 47 464 55 499 71C534 87 565 109 591 136C616 163 636 196 650 233C664 270 671 309 671 350C671 391 664 430 650 467C636 504 616 536 591 564C565 591 534 613 499 629C464 645 425 653 383 653C341 653 302 645 267 629C232 613 201 591 176 564C150 536 130 504 116 467C102 430 95 391 95 350ZM414 804C414 818 419 830 429 840C438 850 450 855 464 855C478 855 490 850 500 840C510 830 515 818 515 804C515 790 510 778 500 769C490 759 478 754 464 754C450 754 438 759 429 769C419 778 414 790 414 804ZM251 804C251 818 256 830 266 840C275 850 287 855 301 855C315 855 327 850 337 840C347 830 352 818 352 804C352 790 347 778 337 769C327 759 315 754 301 754C287 754 275 759 266 769C256 778 251 790 251 804Z"/>
<glyph unicode="&#xd7;" horiz-adv-x="528" d="M264 218L113 67L75 105L226 256L75 407L113 445L264 294L415 445L453 407L302 256L453 105L415 67L264 218Z"/>
<glyph unicode="&#xd8;" horiz-adv-x="766" d="M35 350C35 401 44 448 62 492C79 536 104 574 135 607C166 639 202 664 245 683C288 701 334 710 383 710C417 710 450 706 481 697C512 688 540 675 566 659L602 710L668 710L609 627C647 594 677 554 699 507C720 459 731 407 731 350C731 299 722 251 705 208C687 164 663 126 632 94C601 61 564 36 521 18C478 -1 432 -10 383 -10C348 -10 316 -6 285 3C254 12 226 24 199 41L163 -10L98 -10L156 73C118 106 88 146 67 194C46 241 35 293 35 350ZM671 350C671 396 663 439 646 478C629 517 605 550 575 578L232 89C253 76 277 65 302 58C327 51 354 47 383 47C425 47 464 55 499 71C534 87 565 109 591 136C616 163 636 196 650 233C664 270 671 309 671 350ZM95 350C95 304 103 262 120 223C137 184 160 150 190 122L533 611C512 624 488 635 463 642C438 649 411 653 383 653C341 653 302 645 267 629C232 613 201 591 176 564C150 536 130 504 116 467C102 430 95 391 95 350Z"/>
<glyph unicode="&#xd9;" horiz-adv-x="720" d="M360 -10C309 -10 263 2 221 25C179 48 146 78 121 117C108 138 98 161 91 186C84 211 80 243 80 280L80 700L140 700L140 277C140 246 143 221 148 201C153 181 161 163 171 147C190 116 217 92 250 74C283 56 320 47 360 47C400 47 437 56 470 74C503 92 530 116 549 147C559 163 567 181 572 201C577 221 580 246 580 277L580 700L640 700L640 280C640 243 637 211 630 186C623 161 612 138 599 117C574 78 541 48 499 25C457 2 411 -10 360 -10ZM317 880L382 740L337 740L242 880L317 880Z"/>
<glyph unicode="&#xda;" horiz-adv-x="720" d="M360 -10C309 -10 263 2 221 25C179 48 146 78 121 117C108 138 98 161 91 186C84 211 80 243 80 280L80 700L140 700L140 277C140 246 143 221 148 201C153 181 161 163 171 147C190 116 217 92 250 74C283 56 320 47 360 47C400 47 437 56 470 74C503 92 530 116 549 147C559 163 567 181 572 201C577 221 580 246 580 277L580 700L640 700L640 280C640 243 637 211 630 186C623 161 612 138 599 117C574 78 541 48 499 25C457 2 411 -10 360 -10ZM478 880L383 740L338 740L403 880L478 880Z"/>
<glyph unicode="&#xdb;" horiz-adv-x="720" d="M360 -10C309 -10 263 2 221 25C179 48 146 78 121 117C108 138 98 161 91 186C84 211 80 243 80 280L80 700L140 700L140 277C140 246 143 221 148 201C153 181 161 163 171 147C190 116 217 92 250 74C283 56 320 47 360 47C400 47 437 56 470 74C503 92 530 116 549 147C559 163 567 181 572 201C577 221 580 246 580 277L580 700L640 700L640 280C640 243 637 211 630 186C623 161 612 138 599 117C574 78 541 48 499 25C457 2 411 -10 360 -10ZM275 740L230 740L325 880L395 880L490 740L445 740L360 834L275 740Z"/>
<glyph unicode="&#xdc;" horiz-adv-x="720" d="M360 -10C309 -10 263 2 221 25C179 48 146 78 121 117C108 138 98 161 91 186C84 211 80 243 80 280L80 700L140 700L140 277C140 246 143 221 148 201C153 181 161 163 171 147C190 116 217 92 250 74C283 56 320 47 360 47C400 47 437 56 470 74C503 92 530 116 549 147C559 163 567 181 572 201C577 221 580 246 580 277L580 700L640 700L640 280C640 243 637 211 630 186C623 161 612 138 599 117C574 78 541 48 499 25C457 2 411 -10 360 -10ZM391 804C391 818 396 830 406 840C415 850 427 855 441 855C455 855 467 850 477 840C487 830 492 818 492 804C492 790 487 778 477 769C467 759 455 754 441 754C427 754 415 759 406 769C396 778 391 790 391 804ZM228 804C228 818 233 830 243 840C252 850 264 855 278 855C292 855 304 850 314 840C324 830 329 818 329 804C329 790 324 778 314 769C304 759 292 754 278 754C264 754 252 759 243 769C233 778 228 790 228 804Z"/>
<glyph unicode="&#xdd;" horiz-adv-x="560" d="M310 329L310 0L250 0L250 329L10 700L78 700L280 387L482 700L550 700L310 329ZM399 880L304 740L259 740L324 880L399 880Z"/>
<glyph unicode="&#xde;" horiz-adv-x="580" d="M150 700L150 531L349 531C381 531 408 527 430 520C452 513 471 502 486 489C505 472 521 452 533 428C544 404 550 378 550 350C550 322 544 296 533 272C521 248 505 228 486 211C471 198 452 187 430 180C408 173 381 169 349 169L150 169L150 0L90 0L90 700L150 700ZM346 226C373 226 395 229 412 236C429 243 443 252 454 263C465 274 474 287 481 302C487 317 490 333 490 350C490 367 487 383 481 398C474 413 465 426 454 437C443 448 429 457 412 464C395 471 373 474 346 474L150 474L150 226L346 226Z"/>
<glyph unicode="&#xdf;" horiz-adv-x="570" d="M226 66C251 51 279 44 309 44C332 44 353 48 372 57C391 65 408 76 423 90C437 104 448 121 456 140C464 159 468 180 468 202C468 229 462 253 451 275C440 297 424 315 405 330C392 339 376 347 359 353C341 358 318 361 289 361L250 361L250 415L272 415C313 415 346 427 369 451C392 475 403 505 403 540C403 557 400 574 394 589C388 604 379 618 368 629C357 640 343 649 327 656C311 663 293 666 272 666C250 666 231 662 214 655C197 648 182 637 171 624C162 613 155 599 150 582C145 565 142 541 142 510L142 0L85 0L85 510C85 549 89 581 97 605C105 628 117 648 132 664C149 681 169 695 192 705C215 715 242 720 272 720C301 720 327 715 350 706C373 697 392 684 409 668C425 651 438 632 447 610C456 588 460 565 460 540C460 511 455 485 444 461C433 437 416 417 395 400C435 384 467 358 490 323C513 287 525 247 525 202C525 173 520 145 509 119C498 93 484 71 465 52C446 33 423 18 397 7C371 -5 343 -10 312 -10C291 -10 270 -8 250 -3C229 3 211 10 196 21L226 66Z"/>
<glyph unicode="&#xe0;" horiz-adv-x="582" d="M442 0L442 67C425 44 402 25 374 11C346 -3 314 -10 278 -10C257 -10 234 -7 211 -1C188 6 165 17 142 33C112 54 88 82 71 116C54 149 45 187 45 228C45 266 53 301 68 334C83 366 104 393 130 415C149 430 171 443 196 452C221 461 247 466 275 466C308 466 339 460 368 447C397 434 421 416 442 393L442 456L497 456L497 0L442 0ZM440 320C435 329 427 338 418 349C408 360 396 370 382 379C368 388 352 396 334 403C316 409 297 412 276 412C257 412 238 409 219 403C200 396 182 386 166 373C146 356 130 336 119 311C108 286 102 258 102 228C102 196 109 167 122 141C135 114 152 93 174 78C189 68 205 60 222 54C239 47 258 44 277 44C311 44 342 53 371 71C399 88 422 113 440 144L440 320ZM279 670L344 530L299 530L204 670L279 670Z"/>
<glyph unicode="&#xe1;" horiz-adv-x="582" d="M442 0L442 67C425 44 402 25 374 11C346 -3 314 -10 278 -10C257 -10 234 -7 211 -1C188 6 165 17 142 33C112 54 88 82 71 116C54 149 45 187 45 228C45 266 53 301 68 334C83 366 104 393 130 415C149 430 171 443 196 452C221 461 247 466 275 466C308 466 339 460 368 447C397 434 421 416 442 393L442 456L497 456L497 0L442 0ZM440 320C435 329 427 338 418 349C408 360 396 370 382 379C368 388 352 396 334 403C316 409 297 412 276 412C257 412 238 409 219 403C200 396 182 386 166 373C146 356 130 336 119 311C108 286 102 258 102 228C102 196 109 167 122 141C135 114 152 93 174 78C189 68 205 60 222 54C239 47 258 44 277 44C311 44 342 53 371 71C399 88 422 113 440 144L440 320ZM410 670L315 530L270 530L335 670L410 670Z"/>
<glyph unicode="&#xe2;" horiz-adv-x="582" d="M442 0L442 67C425 44 402 25 374 11C346 -3 314 -10 278 -10C257 -10 234 -7 211 -1C188 6 165 17 142 33C112 54 88 82 71 116C54 149 45 187 45 228C45 266 53 301 68 334C83 366 104 393 130 415C149 430 171 443 196 452C221 461 247 466 275 466C308 466 339 460 368 447C397 434 421 416 442 393L442 456L497 456L497 0L442 0ZM440 320C435 329 427 338 418 349C408 360 396 370 382 379C368 388 352 396 334 403C316 409 297 412 276 412C257 412 238 409 219 403C200 396 182 386 166 373C146 356 130 336 119 311C108 286 102 258 102 228C102 196 109 167 122 141C135 114 152 93 174 78C189 68 205 60 222 54C239 47 258 44 277 44C311 44 342 53 371 71C399 88 422 113 440 144L440 320ZM210 530L165 530L260 670L330 670L425 530L380 530L295 624L210 530Z"/>
<glyph unicode="&#xe3;" horiz-adv-x="582" d="M442 0L442 67C425 44 402 25 374 11C346 -3 314 -10 278 -10C257 -10 234 -7 211 -1C188 6 165 17 142 33C112 54 88 82 71 116C54 149 45 187 45 228C45 266 53 301 68 334C83 366 104 393 130 415C149 430 171 443 196 452C221 461 247 466 275 466C308 466 339 460 368 447C397 434 421 416 442 393L442 456L497 456L497 0L442 0ZM440 320C435 329 427 338 418 349C408 360 396 370 382 379C368 388 352 396 334 403C316 409 297 412 276 412C257 412 238 409 219 403C200 396 182 386 166 373C146 356 130 336 119 311C108 286 102 258 102 228C102 196 109 167 122 141C135 114 152 93 174 78C189 68 205 60 222 54C239 47 258 44 277 44C311 44 342 53 371 71C399 88 422 113 440 144L440 320ZM150 567C150 577 152 587 155 597C158 607 163 616 169 624C175 631 183 638 192 643C201 648 212 650 224 650C237 650 249 648 260 643C271 638 281 633 291 628C301 622 311 617 320 612C329 607 339 605 348 605C359 605 367 609 373 616C379 623 383 634 384 650L424 639C424 629 422 619 419 609C416 599 411 590 405 583C399 575 391 569 382 564C373 559 362 556 350 556C337 556 326 558 315 563C304 568 293 573 283 579C273 584 263 589 254 594C245 599 235 601 226 601C215 601 207 598 201 591C195 584 191 572 190 556L150 567Z"/>
<glyph unicode="&#xe4;" horiz-adv-x="582" d="M442 0L442 67C425 44 402 25 374 11C346 -3 314 -10 278 -10C257 -10 234 -7 211 -1C188 6 165 17 142 33C112 54 88 82 71 116C54 149 45 187 45 228C45 266 53 301 68 334C83 366 104 393 130 415C149 430 171 443 196 452C221 461 247 466 275 466C308 466 339 460 368 447C397 434 421 416 442 393L442 456L497 456L497 0L442 0ZM440 320C435 329 427 338 418 349C408 360 396 370 382 379C368 388 352 396 334 403C316 409 297 412 276 412C257 412 238 409 219 403C200 396 182 386 166 373C146 356 130 336 119 311C108 286 102 258 102 228C102 196 109 167 122 141C135 114 152 93 174 78C189 68 205 60 222 54C239 47 258 44 277 44C311 44 342 53 371 71C399 88 422 113 440 144L440 320ZM323 594C323 608 328 620 338 630C347 640 359 645 373 645C387 645 399 640 409 630C419 620 424 608 424 594C424 580 419 568 409 559C399 549 387 544 373 544C359 544 347 549 338 559C328 568 323 580 323 594ZM160 594C160 608 165 620 175 630C184 640 196 645 210 645C224 645 236 640 246 630C256 620 261 608 261 594C261 580 256 568 246 559C236 549 224 544 210 544C196 544 184 549 175 559C165 568 160 580 160 594Z"/>
<glyph unicode="&#xe5;" horiz-adv-x="582" d="M442 0L442 67C425 44 402 25 374 11C346 -3 314 -10 278 -10C257 -10 234 -7 211 -1C188 6 165 17 142 33C112 54 88 82 71 116C54 149 45 187 45 228C45 266 53 301 68 334C83 366 104 393 130 415C149 430 171 443 196 452C221 461 247 466 275 466C308 466 339 460 368 447C397 434 421 416 442 393L442 456L497 456L497 0L442 0ZM440 320C435 329 427 338 418 349C408 360 396 370 382 379C368 388 352 396 334 403C316 409 297 412 276 412C257 412 238 409 219 403C200 396 182 386 166 373C146 356 130 336 119 311C108 286 102 258 102 228C102 196 109 167 122 141C135 114 152 93 174 78C189 68 205 60 222 54C239 47 258 44 277 44C311 44 342 53 371 71C399 88 422 113 440 144L440 320ZM202 610C202 635 211 657 228 674C245 691 267 700 292 700C317 700 339 691 356 674C373 657 382 635 382 610C382 585 373 563 356 546C339 529 317 520 292 520C267 520 245 529 228 546C211 563 202 585 202 610ZM242 610C242 596 247 584 257 575C266 565 278 560 292 560C306 560 318 565 328 575C337 584 342 596 342 610C342 624 337 636 328 646C318 655 306 660 292 660C278 660 266 655 257 646C247 636 242 624 242 610Z"/>
<glyph unicode="&#xe6;" horiz-adv-x="915" d="M442 0L442 67C425 44 402 25 374 11C346 -3 314 -10 278 -10C257 -10 234 -7 211 -1C188 6 165 17 142 33C112 54 88 82 71 116C54 149 45 187 45 228C45 266 53 301 68 334C83 366 104 393 130 415C149 430 171 443 196 452C221 461 247 466 275 466C308 466 339 460 368 447C397 434 421 416 442 393L442 456L495 456L495 386C514 411 537 430 564 445C591 459 623 466 658 466C689 466 717 460 743 449C768 438 791 422 810 402C829 382 843 359 854 332C865 305 870 275 870 243C870 241 870 238 870 235C870 232 870 228 869 223L497 223C498 199 502 176 511 155C519 133 530 114 545 98C560 81 578 68 599 59C620 49 643 44 669 44C699 44 726 50 751 62C776 73 797 90 815 112L855 74C838 53 813 33 782 16C751 -1 713 -10 669 -10C632 -10 599 -3 570 12C541 27 516 47 495 74L495 0L442 0ZM440 320C435 329 427 338 418 349C408 360 396 370 382 379C368 388 352 396 334 403C316 409 297 412 276 412C257 412 238 409 219 403C200 396 182 386 166 373C146 356 130 336 119 311C108 286 102 258 102 228C102 196 109 167 122 141C135 114 152 93 174 78C189 68 205 60 222 54C239 47 258 44 277 44C311 44 342 53 371 71C399 88 422 113 440 144L440 320ZM658 412C638 412 619 409 602 402C584 395 568 385 555 373C542 361 530 347 521 330C511 313 504 295 500 275L811 275C808 295 802 313 793 330C784 347 773 361 760 374C746 386 731 395 714 402C697 409 678 412 658 412Z"/>
<glyph unicode="&#xe7;" horiz-adv-x="505" d="M475 69C454 46 430 28 403 15C376 2 346 -6 314 -9L293 -140L218 -140L266 -8C237 -5 209 2 183 15C157 27 134 43 115 64C95 84 79 108 68 136C56 163 50 194 50 228C50 260 56 290 68 319C79 348 96 373 117 395C138 417 163 434 192 447C221 460 252 466 286 466C324 466 357 459 386 446C415 433 439 416 460 395L424 354C407 371 387 385 364 396C341 407 315 412 286 412C262 412 239 407 218 398C196 389 177 376 161 359C144 342 131 323 122 301C112 278 107 254 107 228C107 203 112 179 121 157C130 134 143 115 160 98C177 81 197 68 220 59C243 49 267 44 294 44C347 44 394 65 434 107L475 69Z"/>
<glyph unicode="&#xe8;" horiz-adv-x="520" d="M263 412C243 412 224 409 207 402C189 395 173 385 160 373C147 361 135 347 126 330C116 313 109 295 105 275L416 275C413 295 407 313 398 330C389 347 378 361 365 374C351 386 336 395 319 402C302 409 283 412 263 412ZM460 74C443 53 418 33 387 16C356 -1 318 -10 274 -10C242 -10 212 -4 184 7C156 18 132 35 112 56C91 77 75 102 63 131C51 160 45 193 45 228C45 261 50 292 61 321C72 350 87 375 106 396C125 417 148 434 175 447C202 460 231 466 263 466C294 466 322 460 348 449C373 438 396 422 415 402C434 382 448 359 459 332C470 305 475 275 475 243C475 241 475 238 475 235C475 232 475 228 474 223L102 223C103 199 107 176 116 155C124 133 135 114 150 98C165 81 183 68 204 59C225 49 248 44 274 44C304 44 331 50 356 62C381 73 402 90 420 112L460 74ZM244 670L309 530L264 530L169 670L244 670Z"/>
<glyph unicode="&#xe9;" horiz-adv-x="520" d="M263 412C243 412 224 409 207 402C189 395 173 385 160 373C147 361 135 347 126 330C116 313 109 295 105 275L416 275C413 295 407 313 398 330C389 347 378 361 365 374C351 386 336 395 319 402C302 409 283 412 263 412ZM460 74C443 53 418 33 387 16C356 -1 318 -10 274 -10C242 -10 212 -4 184 7C156 18 132 35 112 56C91 77 75 102 63 131C51 160 45 193 45 228C45 261 50 292 61 321C72 350 87 375 106 396C125 417 148 434 175 447C202 460 231 466 263 466C294 466 322 460 348 449C373 438 396 422 415 402C434 382 448 359 459 332C470 305 475 275 475 243C475 241 475 238 475 235C475 232 475 228 474 223L102 223C103 199 107 176 116 155C124 133 135 114 150 98C165 81 183 68 204 59C225 49 248 44 274 44C304 44 331 50 356 62C381 73 402 90 420 112L460 74ZM379 670L284 530L239 530L304 670L379 670Z"/>
<glyph unicode="&#xea;" horiz-adv-x="520" d="M263 412C243 412 224 409 207 402C189 395 173 385 160 373C147 361 135 347 126 330C116 313 109 295 105 275L416 275C413 295 407 313 398 330C389 347 378 361 365 374C351 386 336 395 319 402C302 409 283 412 263 412ZM460 74C443 53 418 33 387 16C356 -1 318 -10 274 -10C242 -10 212 -4 184 7C156 18 132 35 112 56C91 77 75 102 63 131C51 160 45 193 45 228C45 261 50 292 61 321C72 350 87 375 106 396C125 417 148 434 175 447C202 460 231 466 263 466C294 466 322 460 348 449C373 438 396 422 415 402C434 382 448 359 459 332C470 305 475 275 475 243C475 241 475 238 475 235C475 232 475 228 474 223L102 223C103 199 107 176 116 155C124 133 135 114 150 98C165 81 183 68 204 59C225 49 248 44 274 44C304 44 331 50 356 62C381 73 402 90 420 112L460 74ZM189 530L144 530L239 670L309 670L404 530L359 530L274 624L189 530Z"/>
<glyph unicode="&#xeb;" horiz-adv-x="520" d="M263 412C243 412 224 409 207 402C189 395 173 385 160 373C147 361 135 347 126 330C116 313 109 295 105 275L416 275C413 295 407 313 398 330C389 347 378 361 365 374C351 386 336 395 319 402C302 409 283 412 263 412ZM460 74C443 53 418 33 387 16C356 -1 318 -10 274 -10C242 -10 212 -4 184 7C156 18 132 35 112 56C91 77 75 102 63 131C51 160 45 193 45 228C45 261 50 292 61 321C72 350 87 375 106 396C125 417 148 434 175 447C202 460 231 466 263 466C294 466 322 460 348 449C373 438 396 422 415 402C434 382 448 359 459 332C470 305 475 275 475 243C475 241 475 238 475 235C475 232 475 228 474 223L102 223C103 199 107 176 116 155C124 133 135 114 150 98C165 81 183 68 204 59C225 49 248 44 274 44C304 44 331 50 356 62C381 73 402 90 420 112L460 74ZM305 594C305 608 310 620 320 630C329 640 341 645 355 645C369 645 381 640 391 630C401 620 406 608 406 594C406 580 401 568 391 559C381 549 369 544 355 544C341 544 329 549 320 559C310 568 305 580 305 594ZM142 594C142 608 147 620 157 630C166 640 178 645 192 645C206 645 218 640 228 630C238 620 243 608 243 594C243 580 238 568 228 559C218 549 206 544 192 544C178 544 166 549 157 559C147 568 142 580 142 594Z"/>
<glyph unicode="&#xec;" horiz-adv-x="227" d="M85 456L142 456L142 0L85 0L85 456ZM67 670L132 530L87 530L-8 670L67 670Z"/>
<glyph unicode="&#xed;" horiz-adv-x="227" d="M85 456L142 456L142 0L85 0L85 456ZM236 670L141 530L96 530L161 670L236 670Z"/>
<glyph unicode="&#xee;" horiz-adv-x="227" d="M85 456L142 456L142 0L85 0L85 456ZM29 530L-16 530L79 670L149 670L244 530L199 530L114 624L29 530Z"/>
<glyph unicode="&#xef;" horiz-adv-x="227" d="M85 456L142 456L142 0L85 0L85 456ZM145 594C145 608 150 620 160 630C169 640 181 645 195 645C209 645 221 640 231 630C241 620 246 608 246 594C246 580 241 568 231 559C221 549 209 544 195 544C181 544 169 549 160 559C150 568 145 580 145 594ZM-18 594C-18 608 -13 620 -4 630C6 640 18 645 32 645C46 645 58 640 68 630C78 620 83 608 83 594C83 580 78 568 68 559C58 549 46 544 32 544C18 544 6 549 -4 559C-13 568 -18 580 -18 594Z"/>
<glyph unicode="&#xf0;" horiz-adv-x="560" d="M182 710L248 710L293 642L411 710L438 665L322 598L453 402C470 376 485 349 497 320C509 291 515 260 515 227C515 195 509 165 498 136C486 107 470 81 449 60C428 39 404 22 375 9C346 -4 314 -10 280 -10C246 -10 215 -4 186 9C157 21 133 38 112 59C91 80 74 106 63 135C51 164 45 195 45 228C45 261 51 293 63 322C74 351 91 376 112 397C133 418 159 435 188 448C217 460 249 466 284 466C295 466 307 465 318 464C329 462 339 459 350 456L274 570L154 500L126 546L245 614L182 710ZM406 369C391 381 373 391 352 400C331 408 308 412 284 412C257 412 232 407 210 398C187 389 168 376 152 359C136 342 124 323 115 301C106 278 102 254 102 228C102 203 107 179 116 157C125 134 137 115 153 98C168 81 187 68 209 59C230 49 254 44 280 44C306 44 330 49 352 59C373 68 392 81 408 98C423 115 436 134 445 157C454 179 458 203 458 228C458 257 453 284 442 309C431 334 419 354 406 369Z"/>
<glyph unicode="&#xf1;" horiz-adv-x="577" d="M140 392C159 417 182 435 211 448C239 460 269 466 301 466C334 466 365 460 393 447C421 434 444 414 463 389C476 372 485 353 492 332C499 310 502 280 502 243L502 0L445 0L445 239C445 269 443 292 438 309C433 326 427 340 419 351C406 370 389 385 369 396C348 407 325 412 300 412C267 412 236 404 209 387C182 370 159 347 142 317L142 0L85 0L85 456L140 456L140 392ZM159 567C159 577 161 587 164 597C167 607 172 616 178 624C184 631 192 638 201 643C210 648 221 650 233 650C246 650 258 648 269 643C280 638 290 633 300 628C310 622 320 617 329 612C338 607 348 605 357 605C368 605 376 609 382 616C388 623 392 634 393 650L433 639C433 629 431 619 428 609C425 599 420 590 414 583C408 575 400 569 391 564C382 559 371 556 359 556C346 556 335 558 324 563C313 568 302 573 292 579C282 584 272 589 263 594C254 599 244 601 235 601C224 601 216 598 210 591C204 584 200 572 199 556L159 567Z"/>
<glyph unicode="&#xf2;" horiz-adv-x="560" d="M458 228C458 253 454 277 445 300C436 322 423 341 408 358C392 375 373 388 352 398C330 407 306 412 280 412C254 412 230 407 209 398C187 388 168 375 153 358C137 341 125 322 116 300C107 277 102 253 102 228C102 203 107 179 116 157C125 134 137 115 153 98C168 81 187 68 209 59C230 49 254 44 280 44C306 44 330 49 352 59C373 68 392 81 408 98C423 115 436 134 445 157C454 179 458 203 458 228ZM515 228C515 195 509 165 498 136C486 107 470 81 449 60C428 39 403 22 374 9C345 -4 314 -10 280 -10C246 -10 215 -4 186 9C157 22 133 39 112 60C91 81 74 107 63 136C51 165 45 195 45 228C45 261 51 292 63 321C74 350 91 375 112 396C133 417 157 434 186 447C215 460 246 466 280 466C314 466 345 460 374 447C403 434 428 417 449 396C470 375 486 350 498 321C509 292 515 261 515 228ZM237 670L302 530L257 530L162 670L237 670Z"/>
<glyph unicode="&#xf3;" horiz-adv-x="560" d="M458 228C458 253 454 277 445 300C436 322 423 341 408 358C392 375 373 388 352 398C330 407 306 412 280 412C254 412 230 407 209 398C187 388 168 375 153 358C137 341 125 322 116 300C107 277 102 253 102 228C102 203 107 179 116 157C125 134 137 115 153 98C168 81 187 68 209 59C230 49 254 44 280 44C306 44 330 49 352 59C373 68 392 81 408 98C423 115 436 134 445 157C454 179 458 203 458 228ZM515 228C515 195 509 165 498 136C486 107 470 81 449 60C428 39 403 22 374 9C345 -4 314 -10 280 -10C246 -10 215 -4 186 9C157 22 133 39 112 60C91 81 74 107 63 136C51 165 45 195 45 228C45 261 51 292 63 321C74 350 91 375 112 396C133 417 157 434 186 447C215 460 246 466 280 466C314 466 345 460 374 447C403 434 428 417 449 396C470 375 486 350 498 321C509 292 515 261 515 228ZM401 670L306 530L261 530L326 670L401 670Z"/>
<glyph unicode="&#xf4;" horiz-adv-x="560" d="M458 228C458 253 454 277 445 300C436 322 423 341 408 358C392 375 373 388 352 398C330 407 306 412 280 412C254 412 230 407 209 398C187 388 168 375 153 358C137 341 125 322 116 300C107 277 102 253 102 228C102 203 107 179 116 157C125 134 137 115 153 98C168 81 187 68 209 59C230 49 254 44 280 44C306 44 330 49 352 59C373 68 392 81 408 98C423 115 436 134 445 157C454 179 458 203 458 228ZM515 228C515 195 509 165 498 136C486 107 470 81 449 60C428 39 403 22 374 9C345 -4 314 -10 280 -10C246 -10 215 -4 186 9C157 22 133 39 112 60C91 81 74 107 63 136C51 165 45 195 45 228C45 261 51 292 63 321C74 350 91 375 112 396C133 417 157 434 186 447C215 460 246 466 280 466C314 466 345 460 374 447C403 434 428 417 449 396C470 375 486 350 498 321C509 292 515 261 515 228ZM195 530L150 530L245 670L315 670L410 530L365 530L280 624L195 530Z"/>
<glyph unicode="&#xf5;" horiz-adv-x="560" d="M458 228C458 253 454 277 445 300C436 322 423 341 408 358C392 375 373 388 352 398C330 407 306 412 280 412C254 412 230 407 209 398C187 388 168 375 153 358C137 341 125 322 116 300C107 277 102 253 102 228C102 203 107 179 116 157C125 134 137 115 153 98C168 81 187 68 209 59C230 49 254 44 280 44C306 44 330 49 352 59C373 68 392 81 408 98C423 115 436 134 445 157C454 179 458 203 458 228ZM515 228C515 195 509 165 498 136C486 107 470 81 449 60C428 39 403 22 374 9C345 -4 314 -10 280 -10C246 -10 215 -4 186 9C157 22 133 39 112 60C91 81 74 107 63 136C51 165 45 195 45 228C45 261 51 292 63 321C74 350 91 375 112 396C133 417 157 434 186 447C215 460 246 466 280 466C314 466 345 460 374 447C403 434 428 417 449 396C470 375 486 350 498 321C509 292 515 261 515 228ZM143 567C143 577 145 587 148 597C151 607 156 616 162 624C168 631 176 638 185 643C194 648 205 650 217 650C230 650 242 648 253 643C264 638 274 633 284 628C294 622 304 617 313 612C322 607 332 605 341 605C352 605 360 609 366 616C372 623 376 634 377 650L417 639C417 629 415 619 412 609C409 599 404 590 398 583C392 575 384 569 375 564C366 559 355 556 343 556C330 556 319 558 308 563C297 568 286 573 276 579C266 584 256 589 247 594C238 599 228 601 219 601C208 601 200 598 194 591C188 584 184 572 183 556L143 567Z"/>
<glyph unicode="&#xf6;" horiz-adv-x="560" d="M458 228C458 253 454 277 445 300C436 322 423 341 408 358C392 375 373 388 352 398C330 407 306 412 280 412C254 412 230 407 209 398C187 388 168 375 153 358C137 341 125 322 116 300C107 277 102 253 102 228C102 203 107 179 116 157C125 134 137 115 153 98C168 81 187 68 209 59C230 49 254 44 280 44C306 44 330 49 352 59C373 68 392 81 408 98C423 115 436 134 445 157C454 179 458 203 458 228ZM515 228C515 195 509 165 498 136C486 107 470 81 449 60C428 39 403 22 374 9C345 -4 314 -10 280 -10C246 -10 215 -4 186 9C157 22 133 39 112 60C91 81 74 107 63 136C51 165 45 195 45 228C45 261 51 292 63 321C74 350 91 375 112 396C133 417 157 434 186 447C215 460 246 466 280 466C314 466 345 460 374 447C403 434 428 417 449 396C470 375 486 350 498 321C509 292 515 261 515 228ZM311 594C311 608 316 620 326 630C335 640 347 645 361 645C375 645 387 640 397 630C407 620 412 608 412 594C412 580 407 568 397 559C387 549 375 544 361 544C347 544 335 549 326 559C316 568 311 580 311 594ZM148 594C148 608 153 620 163 630C172 640 184 645 198 645C212 645 224 640 234 630C244 620 249 608 249 594C249 580 244 568 234 559C224 549 212 544 198 544C184 544 172 549 163 559C153 568 148 580 148 594Z"/>
<glyph unicode="&#xf7;" horiz-adv-x="530" d="M55 229L55 283L475 283L475 229L55 229ZM215 426C215 440 220 452 230 462C239 471 251 476 265 476C279 476 291 471 301 462C310 452 315 440 315 426C315 412 310 400 301 391C291 381 279 376 265 376C251 376 239 381 230 391C220 400 215 412 215 426ZM215 86C215 100 220 112 230 122C239 131 251 136 265 136C279 136 291 131 301 122C310 112 315 100 315 86C315 72 310 60 301 51C291 41 279 36 265 36C251 36 239 41 230 51C220 60 215 72 215 86Z"/>
<glyph unicode="&#xf8;" horiz-adv-x="560" d="M515 228C515 195 509 165 498 136C486 107 470 81 449 60C428 39 403 22 374 9C345 -4 314 -10 280 -10C259 -10 238 -8 219 -3C200 3 181 10 164 19L144 -10L80 -10L121 50C97 71 78 97 65 128C52 159 45 192 45 228C45 261 51 292 63 321C74 350 91 375 112 396C133 417 157 434 186 447C215 460 246 466 280 466C301 466 322 463 341 458C360 453 378 445 395 436L416 466L480 466L438 406C462 384 481 358 495 327C508 296 515 263 515 228ZM102 228C102 201 107 177 116 154C125 131 138 111 155 94L362 392C337 405 310 412 280 412C254 412 230 407 209 398C187 388 168 375 153 358C137 341 125 322 116 300C107 277 102 253 102 228ZM458 228C458 254 453 279 444 302C435 325 421 344 404 361L198 63C223 50 251 44 280 44C306 44 330 49 352 59C373 68 392 81 408 98C423 115 436 134 445 157C454 179 458 203 458 228Z"/>
<glyph unicode="&#xf9;" horiz-adv-x="567" d="M427 62C411 41 389 23 362 10C335 -3 305 -10 273 -10C235 -10 201 -2 172 15C142 32 119 55 102 84C93 99 87 117 82 137C77 157 75 182 75 213L75 456L132 456L132 222C132 190 134 165 139 148C144 131 150 116 158 104C170 86 186 72 206 61C225 50 248 44 273 44C304 44 334 53 361 70C388 87 410 110 425 139L425 456L482 456L482 0L427 0L427 62ZM244 670L309 530L264 530L169 670L244 670Z"/>
<glyph unicode="&#xfa;" horiz-adv-x="567" d="M427 62C411 41 389 23 362 10C335 -3 305 -10 273 -10C235 -10 201 -2 172 15C142 32 119 55 102 84C93 99 87 117 82 137C77 157 75 182 75 213L75 456L132 456L132 222C132 190 134 165 139 148C144 131 150 116 158 104C170 86 186 72 206 61C225 50 248 44 273 44C304 44 334 53 361 70C388 87 410 110 425 139L425 456L482 456L482 0L427 0L427 62ZM397 670L302 530L257 530L322 670L397 670Z"/>
<glyph unicode="&#xfb;" horiz-adv-x="567" d="M427 62C411 41 389 23 362 10C335 -3 305 -10 273 -10C235 -10 201 -2 172 15C142 32 119 55 102 84C93 99 87 117 82 137C77 157 75 182 75 213L75 456L132 456L132 222C132 190 134 165 139 148C144 131 150 116 158 104C170 86 186 72 206 61C225 50 248 44 273 44C304 44 334 53 361 70C388 87 410 110 425 139L425 456L482 456L482 0L427 0L427 62ZM196 530L151 530L246 670L316 670L411 530L366 530L281 624L196 530Z"/>
<glyph unicode="&#xfc;" horiz-adv-x="567" d="M427 62C411 41 389 23 362 10C335 -3 305 -10 273 -10C235 -10 201 -2 172 15C142 32 119 55 102 84C93 99 87 117 82 137C77 157 75 182 75 213L75 456L132 456L132 222C132 190 134 165 139 148C144 131 150 116 158 104C170 86 186 72 206 61C225 50 248 44 273 44C304 44 334 53 361 70C388 87 410 110 425 139L425 456L482 456L482 0L427 0L427 62ZM313 594C313 608 318 620 328 630C337 640 349 645 363 645C377 645 389 640 399 630C409 620 414 608 414 594C414 580 409 568 399 559C389 549 377 544 363 544C349 544 337 549 328 559C318 568 313 580 313 594ZM150 594C150 608 155 620 165 630C174 640 186 645 200 645C214 645 226 640 236 630C246 620 251 608 251 594C251 580 246 568 236 559C226 549 214 544 200 544C186 544 174 549 165 559C155 568 150 580 150 594Z"/>
<glyph unicode="&#xfd;" horiz-adv-x="487" d="M96 -240L221 37L15 456L79 456L250 102L411 456L472 456L156 -240L96 -240ZM357 670L262 530L217 530L282 670L357 670Z"/>
<glyph unicode="&#xfe;" horiz-adv-x="582" d="M142 144C160 113 183 88 212 71C240 53 271 44 305 44C324 44 343 47 360 54C377 60 393 68 408 78C430 93 448 114 461 141C474 167 480 196 480 228C480 258 474 286 463 311C452 336 436 356 416 373C400 386 383 396 364 403C345 409 325 412 306 412C285 412 265 409 248 403C230 396 214 388 200 379C186 370 174 360 164 349C154 338 147 329 142 320L142 144ZM85 710L142 710L142 395C163 418 188 436 217 448C245 460 275 466 307 466C335 466 361 461 386 452C411 443 433 430 452 415C478 393 499 366 514 334C529 301 537 266 537 228C537 187 528 149 511 116C494 82 470 54 440 33C417 17 394 6 371 -1C348 -7 325 -10 304 -10C268 -10 236 -3 209 11C182 25 159 43 142 65L142 -240L85 -240L85 710Z"/>
<glyph unicode="&#xff;" horiz-adv-x="487" d="M96 -240L221 37L15 456L79 456L250 102L411 456L472 456L156 -240L96 -240ZM278 594C278 608 283 620 293 630C302 640 314 645 328 645C342 645 354 640 364 630C374 620 379 608 379 594C379 580 374 568 364 559C354 549 342 544 328 544C314 544 302 549 293 559C283 568 278 580 278 594ZM115 594C115 608 120 620 130 630C139 640 151 645 165 645C179 645 191 640 201 630C211 620 216 608 216 594C216 580 211 568 201 559C191 549 179 544 165 544C151 544 139 549 130 559C120 568 115 580 115 594Z"/>
<glyph unicode="&#x131;" horiz-adv-x="227" d="M85 456L142 456L142 0L85 0L85 456Z"/>
<glyph unicode="&#x141;" horiz-adv-x="500" d="M150 435L300 522L300 459L150 372L150 57L480 57L480 0L90 0L90 338L-10 280L-10 343L90 401L90 700L150 700L150 435Z"/>
<glyph unicode="&#x142;" horiz-adv-x="227" d="M85 338L-15 280L-15 342L85 399L85 710L142 710L142 432L242 490L242 429L142 371L142 0L85 0L85 338Z"/>
<glyph unicode="&#x152;" horiz-adv-x="1101" d="M731 643L731 415L981 415L981 358L731 358L731 57L1061 57L1061 0L671 0L671 145C641 98 601 60 551 32C500 4 444 -10 383 -10C334 -10 288 -1 245 18C202 36 166 61 135 94C104 126 79 164 62 208C44 251 35 299 35 350C35 401 44 448 62 492C79 536 104 574 135 607C166 639 202 664 245 683C288 701 334 710 383 710C444 710 500 696 551 668C601 639 641 601 671 554L671 700L1051 700L1051 643L731 643ZM383 47C425 47 464 55 499 71C534 87 565 109 591 136C616 163 636 196 650 233C664 270 671 309 671 350C671 391 664 430 650 467C636 504 616 536 591 564C565 591 534 613 499 629C464 645 425 653 383 653C341 653 302 645 267 629C232 613 201 591 176 564C150 536 130 504 116 467C102 430 95 391 95 350C95 309 102 270 116 233C130 196 150 163 176 136C201 109 232 87 267 71C302 55 341 47 383 47Z"/>
<glyph unicode="&#x153;" horiz-adv-x="934" d="M873 74C856 53 831 33 800 16C769 -1 731 -10 687 -10C641 -10 601 1 566 24C531 46 504 77 485 116C467 78 440 48 405 25C370 2 328 -10 280 -10C246 -10 215 -4 186 9C157 22 133 39 112 60C91 81 74 107 63 136C51 165 45 195 45 228C45 261 51 292 63 321C74 350 91 375 112 396C133 417 157 434 186 447C215 460 246 466 280 466C328 466 369 455 404 432C438 409 465 378 484 341C501 378 527 409 560 432C593 455 631 466 676 466C707 466 735 460 761 449C786 438 809 422 828 402C847 382 861 359 872 332C883 305 888 275 888 243C888 241 888 238 888 235C888 232 888 228 887 223L515 223C516 199 520 176 529 155C537 133 548 114 563 98C578 81 596 68 617 59C638 49 661 44 687 44C717 44 744 50 769 62C794 73 815 90 833 112L873 74ZM458 228C458 253 454 277 445 300C436 322 423 341 408 358C392 375 373 388 352 398C330 407 306 412 280 412C254 412 230 407 209 398C187 388 168 375 153 358C137 341 125 322 116 300C107 277 102 253 102 228C102 203 107 179 116 157C125 134 137 115 153 98C168 81 187 68 209 59C230 49 254 44 280 44C306 44 330 49 352 59C373 68 392 81 408 98C423 115 436 134 445 157C454 179 458 203 458 228ZM676 412C656 412 637 409 620 402C602 395 586 385 573 373C560 361 548 347 539 330C529 313 522 295 518 275L829 275C826 295 820 313 811 330C802 347 791 361 778 374C764 386 749 395 732 402C715 409 696 412 676 412Z"/>
</font>
</defs>
</svg>
