<?xml version="1.0" encoding="utf-8"?>
<!-- Generator: Adobe Illustrator 21.1.0, SVG Export Plug-In . SVG Version: 6.00 Build 0)  -->
<svg version="1.1" id="Layer_1" xmlns="http://www.w3.org/2000/svg" xmlns:xlink="http://www.w3.org/1999/xlink" x="0px" y="0px"
	 viewBox="0 0 20 20" style="enable-background:new 0 0 20 20;" xml:space="preserve">
<style type="text/css">
	.st0{fill:#070E45;}
</style>
<g>
	<path class="st0" d="M10,7.5c-1.4,0-2.5,1.1-2.5,2.5c0,1.4,1.1,2.5,2.5,2.5c1.4,0,2.5-1.1,2.5-2.5C12.5,8.6,11.4,7.5,10,7.5z
		 M15.8,5.6c-0.1-0.3-0.3-0.6-0.6-0.8c-0.3-0.3-0.5-0.4-0.8-0.6C14.1,4.1,13.7,4,13,4c-0.8,0-1,0-3,0c-0.2,0-0.5,0-0.7,0v0
		C8,3.9,7.7,4,7,4C6.3,4,5.9,4.1,5.6,4.2C5.3,4.4,5.1,4.5,4.8,4.8C4.5,5.1,4.4,5.3,4.2,5.6C4.1,5.9,4,6.3,4,7c0,0.8,0,1,0,3
		s0,2.2,0,3c0,0.7,0.2,1.1,0.3,1.4c0.1,0.3,0.3,0.6,0.6,0.8c0.3,0.3,0.5,0.4,0.8,0.6C5.9,15.9,6.3,16,7,16c0.8,0,1,0,3,0
		c2,0,2.2,0,3,0c0.7,0,1.1-0.2,1.4-0.3c0.3-0.1,0.6-0.3,0.8-0.6c0.3-0.3,0.4-0.5,0.6-0.8c0.1-0.3,0.2-0.7,0.3-1.4c0-0.8,0-1,0-3
		s0-2.2,0-3C16,6.3,15.9,5.9,15.8,5.6z M10,13.8c-2.1,0-3.8-1.7-3.8-3.8c0-2.1,1.7-3.8,3.8-3.8c2.1,0,3.8,1.7,3.8,3.8
		C13.8,12.1,12.1,13.8,10,13.8z M13.9,6.9c-0.5,0-0.9-0.4-0.9-0.9c0-0.5,0.4-0.9,0.9-0.9v0c0.5,0,0.9,0.4,0.9,0.9S14.4,6.9,13.9,6.9
		z M20,4.3c-0.1-0.8-0.2-1.3-0.5-1.9C19.3,2,19,1.6,18.6,1.2c-0.7-0.6-1.5-1-2.4-1.2C15.7,0,15.6,0,13.3,0H10C5.8,0,4.6,0,4.4,0
		C3.5,0.1,3,0.2,2.4,0.5C2,0.7,1.6,1,1.3,1.4C0.6,2,0.2,2.8,0.1,3.8C0,4.3,0,4.4,0,6.7C0,7.5,0,8.6,0,10c0,4.2,0,5.4,0,5.6
		c0.1,0.8,0.2,1.4,0.5,1.9C1,18.7,2,19.5,3.2,19.8c0.4,0.1,0.9,0.2,1.5,0.2c0.2,0,2.8,0,5.3,0c2.5,0,5.1,0,5.3,0
		c0.7,0,1.1-0.1,1.5-0.2c1.2-0.3,2.2-1.1,2.7-2.2c0.3-0.6,0.4-1.1,0.5-1.9c0-0.2,0-2.9,0-5.7C20,7.2,20,4.5,20,4.3z M17.3,13
		c0,0.8-0.2,1.3-0.3,1.8c-0.2,0.5-0.4,0.9-0.9,1.3c-0.4,0.4-0.8,0.7-1.3,0.9c-0.5,0.2-1,0.3-1.8,0.3c-0.8,0-1,0-3,0c-2,0-2.3,0-3,0
		c-0.8,0-1.3-0.2-1.8-0.3c-0.5-0.2-0.9-0.4-1.3-0.9c-0.4-0.4-0.7-0.8-0.9-1.3c-0.2-0.5-0.3-1-0.3-1.8c0-0.8,0-1,0-3s0-2.3,0-3
		c0-0.8,0.2-1.3,0.3-1.8c0.2-0.5,0.4-0.9,0.9-1.3C4.3,3.4,4.7,3.2,5.2,3c0.5-0.2,1-0.3,1.8-0.3c0.8,0,1,0,3,0c2,0,2.3,0,3,0
		c0.8,0,1.3,0.2,1.8,0.3c0.5,0.2,0.9,0.4,1.3,0.9c0.4,0.4,0.7,0.8,0.9,1.3c0.2,0.5,0.3,1,0.3,1.8c0,0.8,0,1,0,3S17.4,12.3,17.3,13z"
		/>
</g>
</svg>
