<svg version="1.1" id="Layer_1" xmlns="http://www.w3.org/2000/svg" xmlns:xlink="http://www.w3.org/1999/xlink" x="0px" y="0px"
	 viewBox="0 0 314.5 76.1" style="enable-background:new 0 0 314.5 76.1;" xml:space="preserve">
<path fill="#070E45" d="M84.4,36.8l-12,17.1L48.3,12.1l7-12.1h-6.1l-4,6.9l-4-6.9h-6l7,12.1l-24,41.6l-11.9-17H0l27.6,39.4h4.3l13.5-23.4l13.5,23.4
	h4.3l27.6-39.4H84.4z M61.2,69.8L47.6,46.2h-4.5L29.5,69.8l-7.9-11.3l23.7-41.1l23.8,41.2L61.2,69.8z"/>
<g>
	<path fill="#070E45" d="M120.4,23h5.3l4.4,12.2l4.5-12.2h5.4l-6.2,16l5.4,13.2l11.2-29.3h6.2l-14.8,35.9h-4.9l-6.7-16.1l-6.7,16.1h-4.9l-14.8-35.9
		h6.1l11.3,29.3l5.3-13.2L120.4,23z"/>
	<path fill="#070E45" d="M160,28v-6.1h5.6V28H160z M160,58.8V32.4h5.6v26.5H160z"/>
	<path fill="#070E45" d="M182.6,59.1c-1.8,0-3.4-0.4-4.9-1.1c-1.5-0.7-2.7-1.7-3.8-3c-1.1-1.2-1.9-2.7-2.5-4.3c-0.6-1.6-0.9-3.3-0.9-5.1
		c0-1.9,0.3-3.7,0.9-5.3c0.6-1.7,1.4-3.1,2.5-4.4c1.1-1.2,2.4-2.2,3.9-2.9c1.5-0.7,3.2-1.1,5-1.1c2.2,0,4,0.5,5.6,1.5
		c1.6,1,2.9,2.3,3.9,3.9v-5h4.9v25.7c0,1.9-0.4,3.6-1.1,5.1c-0.7,1.5-1.7,2.7-3,3.8c-1.3,1-2.8,1.8-4.5,2.4
		c-1.7,0.5-3.6,0.8-5.6,0.8c-2.9,0-5.4-0.5-7.3-1.5c-1.9-1-3.6-2.4-4.9-4.2l3.1-2.9c1,1.4,2.3,2.5,3.9,3.2c1.6,0.7,3.3,1.1,5.1,1.1
		c1.1,0,2.2-0.2,3.3-0.5c1-0.3,1.9-0.8,2.7-1.4c0.8-0.6,1.4-1.5,1.8-2.4c0.5-1,0.7-2.1,0.7-3.5v-4c-0.9,1.6-2.2,2.9-3.9,3.7
		C186.1,58.6,184.4,59.1,182.6,59.1z M184.4,54.6c0.8,0,1.7-0.1,2.4-0.4c0.8-0.3,1.5-0.7,2.1-1.2c0.7-0.5,1.2-1,1.7-1.7
		c0.5-0.6,0.8-1.3,1-2v-6.9c-0.7-1.7-1.7-3.1-3.1-4.1c-1.4-1.1-2.9-1.6-4.6-1.6c-1.2,0-2.3,0.3-3.3,0.8c-1,0.5-1.8,1.2-2.5,2.1
		c-0.7,0.9-1.2,1.8-1.6,2.9c-0.4,1.1-0.6,2.2-0.6,3.3c0,1.2,0.2,2.4,0.6,3.4c0.4,1.1,1,2,1.7,2.8c0.7,0.8,1.6,1.4,2.6,1.9
		C182.1,54.3,183.2,54.6,184.4,54.6z"/>
	<path fill="#070E45" d="M237,32.4h5.3l-11.2,26.5h-4.6l-5-12.3l-4.9,12.3h-4.6L201,32.4h5.3l8.6,21.1l3.8-9.8l-4.6-11.2h4.6l3,8.3l3-8.3h4.6
		l-4.6,11.2l3.8,9.8L237,32.4z"/>
	<path fill="#070E45" d="M252.4,59.3c-1.3,0-2.5-0.2-3.6-0.6c-1.1-0.4-2-1-2.8-1.7c-0.8-0.7-1.4-1.6-1.9-2.6c-0.5-1-0.7-2.1-0.7-3.3
		c0-1.2,0.3-2.4,0.8-3.4c0.5-1,1.3-1.9,2.3-2.6c1-0.7,2.2-1.3,3.5-1.7c1.4-0.4,2.9-0.6,4.5-0.6c1.2,0,2.5,0.1,3.7,0.3
		c1.2,0.2,2.3,0.5,3.3,0.9v-1.8c0-2-0.6-3.5-1.7-4.6c-1.1-1.1-2.7-1.6-4.8-1.6c-1.4,0-2.8,0.3-4.2,0.8c-1.4,0.5-2.8,1.3-4.2,2.3
		l-1.7-3.5c3.4-2.3,6.9-3.4,10.6-3.4c3.6,0,6.5,0.9,8.5,2.8c2,1.9,3,4.5,3,8v9.6c0,0.6,0.1,1.1,0.4,1.4c0.2,0.3,0.6,0.4,1.2,0.5v4.8
		c-0.5,0.1-1,0.2-1.5,0.2c-0.5,0-0.9,0.1-1.2,0.1c-1.1-0.1-1.9-0.4-2.5-0.9s-0.9-1.2-1-2l-0.2-1.7c-1.2,1.6-2.6,2.7-4.4,3.6
		C256.3,58.9,254.4,59.3,252.4,59.3z M253.9,55.2c1.3,0,2.6-0.2,3.8-0.7c1.2-0.5,2.1-1.2,2.8-2c0.7-0.6,1.1-1.2,1.1-1.9V47
		c-0.9-0.4-1.9-0.7-3-0.9s-2.1-0.3-3.1-0.3c-2,0-3.6,0.4-4.9,1.3c-1.3,0.9-1.9,2-1.9,3.4c0,1.3,0.5,2.4,1.5,3.3
		C251.2,54.8,252.4,55.2,253.9,55.2z"/>
	<path fill="#070E45" d="M314.5,58.8h-5.6V44c0-2.5-0.4-4.3-1.2-5.4c-0.8-1.1-2-1.7-3.5-1.7c-1.6,0-3,0.6-4.4,1.7c-1.3,1.2-2.3,2.7-2.8,4.5v15.7
		h-5.6V44c0-2.5-0.4-4.3-1.2-5.4s-2-1.7-3.5-1.7c-1.6,0-3,0.6-4.3,1.7c-1.3,1.1-2.3,2.6-2.9,4.5v15.7H274V32.4h5.1v5.3
		c1-1.9,2.4-3.3,4.1-4.3c1.7-1,3.7-1.5,5.8-1.5c2.2,0,4,0.6,5.2,1.7c1.2,1.1,2,2.6,2.4,4.3c1.1-2,2.5-3.4,4.2-4.5
		c1.7-1,3.6-1.5,5.7-1.5c1.6,0,2.8,0.3,3.9,0.9c1,0.6,1.8,1.4,2.5,2.4c0.6,1,1,2.1,1.3,3.4s0.4,2.7,0.4,4.1V58.8z"/>
</g>
</svg>
